<?xml version="1.0" encoding="iso-8859-1"?>
<!-- Generator: Adobe Illustrator 16.0.0, SVG Export Plug-In . SVG Version: 6.00 Build 0)  -->
<!DOCTYPE svg PUBLIC "-//W3C//DTD SVG 1.1//EN" "http://www.w3.org/Graphics/SVG/1.1/DTD/svg11.dtd">
<svg version="1.1" xmlns="http://www.w3.org/2000/svg" xmlns:xlink="http://www.w3.org/1999/xlink" x="0px" y="0px"
	 width="29.738px" height="29.738px" viewBox="0 0 29.738 29.738" style="enable-background:new 0 0 29.738 29.738;"
	 xml:space="preserve">
<g id="&#x5716;&#x5C64;_2">
</g>
<g id="&#x5716;&#x5C64;_3">
	<g>
		<path style="fill:#2A78B2;" d="M29.738,26.39c0,1.851-1.498,3.349-3.35,3.349H3.349C1.497,29.738,0,28.24,0,26.39V3.35
			C0,1.5,1.497,0,3.349,0h23.04c1.852,0,3.35,1.5,3.35,3.35V26.39z"/>
		<circle style="fill:#2A78B2;stroke:#FFFFFF;stroke-width:2;stroke-miterlimit:10;" cx="18.55" cy="16.142" r="4.127"/>
		<circle style="fill:#2A78B2;stroke:#FFFFFF;stroke-width:0.75;stroke-miterlimit:10;" cx="11.84" cy="23.618" r="3.116"/>
		<circle style="fill:#2A78B2;stroke:#B4B4B5;stroke-width:2;stroke-miterlimit:10;" cx="11.3" cy="12.5" r="5.315"/>
		<circle style="fill:#2A78B2;stroke:#FFFFFF;stroke-miterlimit:10;" cx="19.519" cy="6.215" r="2.904"/>
		<g>
			<g>
				<path style="fill:#FFFFFF;" d="M18.319,7.049l0.348-0.137c0.246,0.292,0.528,0.439,0.85,0.439c0.137,0,0.266-0.021,0.387-0.064
					c0.121-0.041,0.212-0.097,0.276-0.165c0.063-0.07,0.094-0.144,0.094-0.222c0-0.089-0.047-0.177-0.138-0.262
					c-0.129-0.117-0.363-0.26-0.701-0.426c-0.343-0.168-0.556-0.288-0.638-0.361c-0.146-0.126-0.218-0.26-0.218-0.405
					c0-0.116,0.042-0.222,0.127-0.316c0.087-0.096,0.206-0.17,0.36-0.225s0.323-0.081,0.505-0.081c0.193,0,0.374,0.03,0.542,0.092
					c0.168,0.063,0.347,0.177,0.534,0.342l-0.335,0.164c-0.152-0.133-0.284-0.219-0.395-0.261c-0.106-0.042-0.226-0.063-0.353-0.063
					c-0.166,0-0.304,0.032-0.405,0.097c-0.105,0.065-0.158,0.146-0.158,0.241c0,0.058,0.02,0.113,0.054,0.167
					c0.039,0.054,0.106,0.113,0.204,0.177c0.056,0.034,0.231,0.123,0.528,0.264c0.354,0.17,0.598,0.321,0.73,0.453
					c0.132,0.133,0.198,0.265,0.198,0.398c0,0.192-0.113,0.357-0.339,0.499c-0.226,0.143-0.498,0.214-0.822,0.214
					c-0.248,0-0.475-0.043-0.677-0.129C18.677,7.394,18.491,7.248,18.319,7.049z"/>
			</g>
			
				<rect x="19.145" y="4.404" style="fill:#FFFFFF;stroke:#2A78B2;stroke-width:0.15;stroke-miterlimit:10;" width="0.293" height="3.623"/>
			
				<rect x="19.653" y="4.404" style="fill:#FFFFFF;stroke:#2A78B2;stroke-width:0.15;stroke-miterlimit:10;" width="0.293" height="3.623"/>
		</g>
		<g>
			<path style="fill:#FFFFFF;" d="M17.056,15.229c0.002-0.025,0.014-0.049,0.035-0.069c0.02-0.02,0.045-0.029,0.072-0.029h0.854
				c0.029,0,0.057,0.012,0.078,0.03c0.02,0.021,0.028,0.047,0.028,0.076c0,0.03-0.009,0.056-0.028,0.076
				c-0.021,0.021-0.049,0.032-0.078,0.032h-0.764l-0.09,0.55c0.105-0.051,0.217-0.076,0.331-0.076c0.104,0,0.202,0.02,0.294,0.061
				c0.093,0.04,0.173,0.095,0.242,0.163c0.068,0.071,0.124,0.15,0.164,0.243c0.041,0.091,0.062,0.188,0.062,0.293
				c0,0.104-0.021,0.202-0.062,0.293c-0.04,0.093-0.096,0.174-0.164,0.242c-0.069,0.069-0.149,0.125-0.242,0.165
				c-0.092,0.041-0.19,0.061-0.294,0.061c-0.147,0-0.28-0.037-0.399-0.113c-0.117-0.075-0.21-0.173-0.276-0.295
				c-0.017-0.027-0.025-0.055-0.025-0.086c0-0.025,0.009-0.049,0.025-0.067c0.016-0.021,0.039-0.029,0.072-0.029
				c0.025,0,0.049,0.008,0.071,0.026c0.021,0.019,0.039,0.04,0.053,0.066c0.045,0.084,0.111,0.153,0.197,0.206
				c0.084,0.051,0.18,0.077,0.282,0.077c0.077,0,0.147-0.015,0.212-0.043c0.067-0.028,0.125-0.067,0.175-0.118
				c0.049-0.048,0.088-0.108,0.116-0.173c0.029-0.065,0.043-0.137,0.043-0.212c0-0.077-0.014-0.147-0.043-0.212
				c-0.028-0.066-0.067-0.124-0.116-0.172c-0.05-0.05-0.107-0.09-0.175-0.119c-0.064-0.029-0.135-0.044-0.212-0.044
				c-0.029,0-0.063,0.004-0.101,0.007c-0.035,0.007-0.072,0.014-0.105,0.025c-0.035,0.012-0.068,0.026-0.098,0.044
				c-0.029,0.019-0.055,0.043-0.074,0.07c-0.016,0.026-0.033,0.046-0.049,0.062c-0.018,0.017-0.039,0.024-0.066,0.024
				s-0.05-0.01-0.069-0.03c-0.018-0.021-0.027-0.043-0.027-0.069c0-0.004,0-0.01,0-0.01l0.004-0.012L17.056,15.229z"/>
			<path style="fill:#FFFFFF;" d="M19.792,15.139c0.151,0,0.295,0.028,0.429,0.086c0.134,0.057,0.251,0.136,0.352,0.236
				c0.1,0.101,0.179,0.218,0.235,0.353c0.059,0.134,0.088,0.274,0.088,0.427s-0.029,0.295-0.088,0.429
				c-0.057,0.134-0.136,0.251-0.235,0.35c-0.101,0.099-0.218,0.176-0.352,0.234c-0.134,0.058-0.277,0.087-0.429,0.087
				c-0.152,0-0.295-0.029-0.428-0.087c-0.134-0.059-0.251-0.136-0.349-0.234c-0.1-0.099-0.178-0.216-0.235-0.35
				c-0.059-0.134-0.087-0.276-0.087-0.429s0.028-0.293,0.087-0.427c0.058-0.135,0.136-0.252,0.235-0.353
				c0.098-0.101,0.215-0.18,0.349-0.236C19.497,15.167,19.64,15.139,19.792,15.139z M19.792,15.351
				c-0.121,0-0.237,0.025-0.345,0.071c-0.108,0.047-0.203,0.11-0.282,0.189c-0.079,0.08-0.142,0.177-0.188,0.284
				c-0.045,0.107-0.068,0.224-0.068,0.345c0,0.123,0.023,0.238,0.068,0.345c0.047,0.109,0.109,0.202,0.188,0.282
				s0.174,0.143,0.282,0.188c0.107,0.047,0.224,0.069,0.345,0.069s0.236-0.022,0.345-0.069c0.109-0.046,0.204-0.108,0.286-0.188
				c0.078-0.08,0.144-0.173,0.189-0.282c0.045-0.106,0.067-0.222,0.067-0.345c0-0.121-0.022-0.237-0.067-0.345
				c-0.046-0.107-0.111-0.204-0.189-0.284c-0.082-0.079-0.177-0.143-0.286-0.189C20.028,15.376,19.913,15.351,19.792,15.351z"/>
		</g>
		<g>
			<path style="fill:#FFFFFF;" d="M10.78,22.852h-0.006l-0.357,0.191l-0.053-0.209l0.447-0.241h0.235v2.052H10.78V22.852z"/>
			<path style="fill:#FFFFFF;" d="M13.317,23.597c0,0.697-0.26,1.083-0.714,1.083c-0.401,0-0.673-0.376-0.679-1.055
				c0-0.688,0.296-1.067,0.715-1.067C13.071,22.558,13.317,22.942,13.317,23.597z M12.202,23.628c0,0.534,0.164,0.836,0.418,0.836
				c0.283,0,0.418-0.331,0.418-0.854c0-0.505-0.128-0.836-0.414-0.836C12.379,22.773,12.202,23.069,12.202,23.628z"/>
		</g>
		<g>
			<path style="fill:#FFFFFF;" d="M9.954,11.819H9.098l-0.086,0.578c0.051-0.007,0.1-0.014,0.182-0.014
				c0.175,0,0.347,0.038,0.485,0.12c0.176,0.1,0.32,0.294,0.32,0.577c0,0.439-0.349,0.767-0.835,0.767
				c-0.246,0-0.454-0.068-0.561-0.137l0.076-0.231c0.094,0.055,0.276,0.124,0.48,0.124c0.286,0,0.532-0.188,0.532-0.486
				c-0.004-0.292-0.197-0.5-0.646-0.5c-0.128,0-0.228,0.014-0.312,0.025l0.146-1.078h1.073V11.819z"/>
			<path style="fill:#FFFFFF;" d="M12.052,12.662c0,0.765-0.283,1.186-0.78,1.186c-0.44,0-0.737-0.41-0.743-1.153
				c0-0.753,0.323-1.169,0.78-1.169C11.782,11.525,12.052,11.947,12.052,12.662z M10.831,12.698c0,0.584,0.18,0.916,0.457,0.916
				c0.312,0,0.46-0.363,0.46-0.938c0-0.553-0.142-0.916-0.456-0.916C11.025,11.761,10.831,12.086,10.831,12.698z"/>
			<path style="fill:#FFFFFF;" d="M13.997,12.662c0,0.765-0.284,1.186-0.781,1.186c-0.439,0-0.736-0.41-0.743-1.153
				c0-0.753,0.325-1.169,0.78-1.169C13.727,11.525,13.997,11.947,13.997,12.662z M12.776,12.698c0,0.584,0.181,0.916,0.457,0.916
				c0.311,0,0.459-0.363,0.459-0.938c0-0.553-0.142-0.916-0.455-0.916C12.971,11.761,12.776,12.086,12.776,12.698z"/>
		</g>
	</g>
</g>
</svg>
