<?xml version="1.0" encoding="iso-8859-1"?>
<!-- Generator: Adobe Illustrator 16.0.0, SVG Export Plug-In . SVG Version: 6.00 Build 0)  -->
<!DOCTYPE svg PUBLIC "-//W3C//DTD SVG 1.1//EN" "http://www.w3.org/Graphics/SVG/1.1/DTD/svg11.dtd">
<svg version="1.1" xmlns="http://www.w3.org/2000/svg" xmlns:xlink="http://www.w3.org/1999/xlink" x="0px" y="0px"
	 width="29.971px" height="29.972px" viewBox="0 0 29.971 29.972" style="enable-background:new 0 0 29.971 29.972;"
	 xml:space="preserve">
<g id="&#x5716;&#x5C64;_2">
</g>
<g id="&#x5716;&#x5C64;_3">
	<g>
		<path style="fill:#2A78B2;" d="M26.596,0c1.862,0,3.375,1.511,3.375,3.375v23.221c0,1.864-1.513,3.376-3.375,3.376H3.375
			C1.511,29.972,0,28.46,0,26.596V3.375C0,1.511,1.511,0,3.375,0H26.596z"/>
		<g>
			<g>
				<g>
					<polygon style="fill:#FFFFFF;" points="22.276,18.37 24.341,18.37 14.676,10.819 12.645,10.819 					"/>
					<polygon style="fill:#FFFFFF;" points="22.379,18.37 24.444,18.37 14.778,10.822 12.746,10.822 					"/>
					<polygon style="fill:#FFFFFF;" points="25.756,18.37 27.82,18.37 18.156,10.819 16.121,10.819 					"/>
					<polygon style="opacity:0.8;fill:#FFFFFF;" points="4.912,18.37 2.993,18.374 12.645,10.819 13.598,11.569 					"/>
					<polygon style="opacity:0.8;fill:#FFFFFF;" points="8.392,18.37 6.47,18.374 14.382,12.185 15.336,12.933 					"/>
				</g>
			</g>
			<g>
				<g>
					<polygon style="fill:#FFFFFF;" points="18.472,26.632 19.423,26.632 14.965,23.152 14.028,23.152 					"/>
					<polygon style="fill:#FFFFFF;" points="18.518,26.633 19.468,26.633 15.014,23.154 14.077,23.154 					"/>
					<polygon style="fill:#FFFFFF;" points="20.074,26.632 21.024,26.632 16.571,23.152 15.634,23.152 					"/>
					<polygon style="opacity:0.8;fill:#FFFFFF;" points="10.467,26.632 9.583,26.633 14.028,23.152 14.471,23.497 					"/>
					<polygon style="opacity:0.8;fill:#FFFFFF;" points="12.071,26.632 11.186,26.633 14.832,23.782 15.272,24.127 					"/>
				</g>
			</g>
			<rect x="14.145" y="4.541" style="fill:#FFFFFF;" width="2.384" height="19.836"/>
		</g>
		<g>
			<path style="fill:#FFFFFF;" d="M25.144,7.746c0.144,0.092,0.475,0.235,0.823,0.235c0.646,0,0.848-0.412,0.842-0.722
				c-0.006-0.521-0.475-0.744-0.962-0.744h-0.28V6.138h0.28c0.367,0,0.831-0.188,0.831-0.63c0-0.296-0.189-0.56-0.652-0.56
				c-0.299,0-0.584,0.132-0.744,0.247l-0.132-0.367c0.194-0.144,0.572-0.286,0.973-0.286c0.732,0,1.064,0.435,1.064,0.887
				c0,0.383-0.229,0.709-0.687,0.876v0.012c0.457,0.091,0.829,0.435,0.829,0.955c0,0.595-0.464,1.115-1.356,1.115
				c-0.418,0-0.782-0.131-0.966-0.252L25.144,7.746z"/>
		</g>
	</g>
</g>
</svg>
