<?xml version="1.0" encoding="iso-8859-1"?>
<!-- Generator: Adobe Illustrator 16.0.0, SVG Export Plug-In . SVG Version: 6.00 Build 0)  -->
<!DOCTYPE svg PUBLIC "-//W3C//DTD SVG 1.1//EN" "http://www.w3.org/Graphics/SVG/1.1/DTD/svg11.dtd">
<svg version="1.1" xmlns="http://www.w3.org/2000/svg" xmlns:xlink="http://www.w3.org/1999/xlink" x="0px" y="0px"
	 width="29.616px" height="29.612px" viewBox="0 0 29.616 29.612" style="enable-background:new 0 0 29.616 29.612;"
	 xml:space="preserve">
<g id="&#x5716;&#x5C64;_2">
</g>
<g id="&#x5716;&#x5C64;_3">
	<g>
		<path style="fill:#E56C4E;" d="M29.616,26.278c0,1.843-1.492,3.334-3.335,3.334H3.333C1.493,29.612,0,28.121,0,26.278V3.332
			C0,1.493,1.493,0,3.333,0h22.947c1.843,0,3.335,1.493,3.335,3.332V26.278z"/>
		<g>
			<rect x="11.52" y="12.569" style="fill:#FFFFFF;" width="14.527" height="7.649"/>
			<g>
				<rect x="3.386" y="21.211" style="fill:#FFFFFF;" width="23.192" height="2.322"/>
				<polygon style="fill:#FFFFFF;" points="10.381,21.428 3.386,21.428 4.886,15.353 10.381,15.353 				"/>
			</g>
			<polygon style="fill:#E56C4E;" points="8.785,18.792 5.079,18.792 5.697,16.563 8.785,16.563 			"/>
			<path style="fill:#FFFFFF;" d="M9.104,23.533c0,1.004-0.809,1.815-1.812,1.815c-1.005,0-1.816-0.812-1.816-1.815
				c0-1.002,0.811-1.815,1.816-1.815C8.295,21.718,9.104,22.531,9.104,23.533z"/>
			<circle style="fill:#E56C4E;" cx="7.292" cy="23.484" r="0.813"/>
			<circle style="fill:#FFFFFF;" cx="23.113" cy="23.586" r="1.815"/>
			<path style="fill:#E56C4E;" d="M23.929,23.537c0,0.449-0.368,0.814-0.815,0.814c-0.45,0-0.815-0.365-0.815-0.814
				c0-0.451,0.365-0.815,0.815-0.815C23.561,22.722,23.929,23.086,23.929,23.537z"/>
		</g>
	</g>
</g>
</svg>
