<?xml version="1.0" encoding="iso-8859-1"?>
<!-- Generator: Adobe Illustrator 16.0.0, SVG Export Plug-In . SVG Version: 6.00 Build 0)  -->
<!DOCTYPE svg PUBLIC "-//W3C//DTD SVG 1.1//EN" "http://www.w3.org/Graphics/SVG/1.1/DTD/svg11.dtd">
<svg version="1.1" xmlns="http://www.w3.org/2000/svg" xmlns:xlink="http://www.w3.org/1999/xlink" x="0px" y="0px" width="29.8px"
	 height="29.8px" viewBox="0 0 29.8 29.8" style="enable-background:new 0 0 29.8 29.8;" xml:space="preserve">
<g id="&#x5716;&#x5C64;_2">
</g>
<g id="&#x5716;&#x5C64;_3">
	<g>
		<path style="fill:#E56C4E;" d="M29.8,26.443c0,1.852-1.503,3.356-3.355,3.356H3.355C1.503,29.8,0,28.295,0,26.443V3.354
			C0,1.504,1.503,0,3.355,0h23.089C28.297,0,29.8,1.504,29.8,3.354V26.443z"/>
		<path style="fill:#FFFFFF;" d="M18.178,6.446h-6.74c-1.763,0-3.191,1.432-3.191,3.194v10.243c0,1.76,1.429,3.189,3.191,3.189h6.74
			c1.762,0,3.192-1.43,3.192-3.189V9.641C21.37,7.878,19.94,6.446,18.178,6.446z M10.524,20.275c-0.524,0-0.95-0.423-0.95-0.948
			c0-0.524,0.426-0.946,0.95-0.946c0.523,0,0.946,0.422,0.946,0.946C11.471,19.853,11.047,20.275,10.524,20.275z M17.202,16.701
			h-4.789c-0.881,0-1.252-0.729-1.252-1.696L10.818,9.44h7.978l-0.252,5.564C18.543,15.973,18.084,16.701,17.202,16.701z
			 M19.302,20.275c-0.524,0-0.947-0.423-0.947-0.948c0-0.524,0.423-0.946,0.947-0.946c0.523,0,0.948,0.422,0.948,0.946
			C20.25,19.853,19.825,20.275,19.302,20.275z"/>
		<g>
			<g>
				<defs>
					<rect id="SVGID_36_" x="8.951" y="3.934" width="11.821" height="1.694"/>
				</defs>
				<clipPath id="SVGID_1_">
					<use xlink:href="#SVGID_36_"  style="overflow:visible;"/>
				</clipPath>
				
					<ellipse style="clip-path:url(#SVGID_1_);fill:none;stroke:#FFFFFF;stroke-width:0.75;stroke-miterlimit:10;" cx="14.807" cy="5.628" rx="5.503" ry="1.163"/>
			</g>
			<rect x="11.528" y="4.682" style="fill:#FFFFFF;" width="0.349" height="2.078"/>
			<rect x="17.812" y="4.682" style="fill:#FFFFFF;" width="0.35" height="2.078"/>
		</g>
		<circle style="fill:#FFFFFF;" cx="13.559" cy="10.096" r="0.708"/>
		<circle style="fill:#FFFFFF;" cx="16.24" cy="10.096" r="0.708"/>
		<g>
			<polygon style="fill:#FFFFFF;" points="9.135,26.749 8.048,26.749 10.951,22.757 11.641,22.757 			"/>
			<polygon style="fill:#FFFFFF;" points="20.667,26.749 21.753,26.749 18.851,22.757 18.162,22.757 			"/>
			<rect x="10.387" y="23.533" style="fill:#FFFFFF;" width="8.912" height="1.038"/>
		</g>
	</g>
</g>
</svg>
