<?xml version="1.0" encoding="iso-8859-1"?>
<!-- Generator: Adobe Illustrator 16.0.0, SVG Export Plug-In . SVG Version: 6.00 Build 0)  -->
<!DOCTYPE svg PUBLIC "-//W3C//DTD SVG 1.1//EN" "http://www.w3.org/Graphics/SVG/1.1/DTD/svg11.dtd">
<svg version="1.1" xmlns="http://www.w3.org/2000/svg" xmlns:xlink="http://www.w3.org/1999/xlink" x="0px" y="0px"
	 width="29.644px" height="29.644px" viewBox="0 0 29.644 29.644" style="enable-background:new 0 0 29.644 29.644;"
	 xml:space="preserve">
<g id="&#x5716;&#x5C64;_2">
</g>
<g id="&#x5716;&#x5C64;_3">
	<g>
		<path style="fill:#E56C4E;" d="M29.644,26.306c0,1.843-1.494,3.338-3.338,3.338H3.337C1.494,29.644,0,28.148,0,26.306V3.338
			C0,1.495,1.494,0,3.337,0h22.969c1.844,0,3.338,1.495,3.338,3.338V26.306z"/>
		<g>
			<polygon style="fill:none;stroke:#FFFFFF;stroke-width:2;stroke-miterlimit:10;" points="18.568,13.404 11.629,11.547 
				4.688,13.404 4.688,26.037 11.629,24.178 18.568,26.037 25.509,24.178 25.509,11.547 			"/>
			<polygon style="fill:#FFFFFF;" points="11.629,24.178 4.688,25.833 4.688,19.586 11.629,16.914 			"/>
			<polygon style="fill:#FFFFFF;" points="25.509,24.178 18.568,26.037 18.568,19.586 25.495,17.882 			"/>
			<polygon style="fill:#FFFFFF;" points="18.568,26.037 11.629,24.178 11.629,16.914 18.568,19.586 			"/>
		</g>
		<g>
			<path style="fill:#E56C4E;stroke:#FFFFFF;stroke-width:0.5;stroke-miterlimit:10;" d="M20.374,6.969
				c0-2.594-2.29-4.701-5.113-4.701c-2.824,0-5.115,2.107-5.115,4.701c0,1.188,0.483,2.27,1.271,3.096h-0.004l3.849,4.414
				l3.848-4.414h-0.006C19.892,9.238,20.374,8.157,20.374,6.969z"/>
			<path style="fill:#FFFFFF;stroke:#FFFFFF;stroke-width:0.5;stroke-miterlimit:10;" d="M17.436,6.969
				c0,1.107-0.974,2.005-2.175,2.005c-1.204,0-2.177-0.897-2.177-2.005c0-1.104,0.973-1.998,2.177-1.998
				C16.462,4.971,17.436,5.865,17.436,6.969z"/>
		</g>
	</g>
</g>
</svg>
