<?xml version="1.0" encoding="iso-8859-1"?>
<!-- Generator: Adobe Illustrator 16.0.0, SVG Export Plug-In . SVG Version: 6.00 Build 0)  -->
<!DOCTYPE svg PUBLIC "-//W3C//DTD SVG 1.1//EN" "http://www.w3.org/Graphics/SVG/1.1/DTD/svg11.dtd">
<svg version="1.1" xmlns="http://www.w3.org/2000/svg" xmlns:xlink="http://www.w3.org/1999/xlink" x="0px" y="0px" width="29.8px"
	 height="29.801px" viewBox="0 0 29.8 29.801" style="enable-background:new 0 0 29.8 29.801;" xml:space="preserve">
<g id="&#x5716;&#x5C64;_2">
</g>
<g id="&#x5716;&#x5C64;_3">
	<g>
		<g>
			<g>
				<defs>
					<rect id="SVGID_38_" x="8.932" y="4.049" width="11.822" height="1.697"/>
				</defs>
				<clipPath id="SVGID_1_">
					<use xlink:href="#SVGID_38_"  style="overflow:visible;"/>
				</clipPath>
				<path style="clip-path:url(#SVGID_1_);fill:none;stroke:#FFFFFF;stroke-width:0.75;stroke-miterlimit:10;" d="M20.293,5.746
					c0,0.642-2.463,1.162-5.503,1.162c-3.043,0-5.502-0.521-5.502-1.162c0-0.643,2.459-1.165,5.502-1.165
					C17.83,4.581,20.293,5.104,20.293,5.746z"/>
			</g>
			<rect x="11.51" y="4.797" style="fill:#FFFFFF;" width="0.348" height="2.077"/>
			<rect x="17.793" y="4.797" style="fill:#FFFFFF;" width="0.351" height="2.077"/>
		</g>
		<path style="fill:#E56C4E;" d="M29.8,26.445c0,1.852-1.502,3.355-3.356,3.355H3.356C1.503,29.801,0,28.297,0,26.445V3.357
			C0,1.505,1.503,0,3.356,0h23.087C28.298,0,29.8,1.505,29.8,3.357V26.445z"/>
		<g>
			<polygon style="fill:#FFFFFF;" points="9.135,25.974 8.047,25.974 10.95,21.981 11.64,21.981 			"/>
			<polygon style="fill:#FFFFFF;" points="20.666,25.974 21.753,25.974 18.848,21.981 18.162,21.981 			"/>
			<rect x="10.388" y="22.76" style="fill:#FFFFFF;" width="8.91" height="1.036"/>
		</g>
		<g>
			<defs>
				<rect id="SVGID_40_" x="7.513" y="2.794" width="7.386" height="21.184"/>
			</defs>
			<clipPath id="SVGID_3_">
				<use xlink:href="#SVGID_40_"  style="overflow:visible;"/>
			</clipPath>
			<path style="clip-path:url(#SVGID_3_);fill:#FFFFFF;" d="M19.424,6.226h-9.048c-0.864,0-1.566,0.742-1.566,1.654L9.328,20.73
				c0,0.915,0.184,1.567,1.048,1.567h9.048c0.866,0,1.367-0.652,1.367-1.567l0.2-12.851C20.99,6.968,20.29,6.226,19.424,6.226z
				 M9.601,11.331c0-0.938,0.747-1.698,1.669-1.698h3.239v3.397h-3.239C10.348,13.03,9.601,12.268,9.601,11.331z M10.879,18.796
				c-0.532,0-0.966-0.446-0.966-0.994c0-0.55,0.434-0.992,0.966-0.992s0.965,0.442,0.965,0.992
				C11.844,18.35,11.411,18.796,10.879,18.796z M19.061,18.796c-0.532,0-0.965-0.446-0.965-0.994c0-0.55,0.434-0.992,0.965-0.992
				c0.533,0,0.965,0.442,0.965,0.992C20.026,18.35,19.594,18.796,19.061,18.796z M18.529,13.03H15.11V9.633h3.419
				c0.919,0,1.669,0.76,1.669,1.698C20.198,12.268,19.448,13.03,18.529,13.03z"/>
		</g>
		<g>
			<defs>
				<rect id="SVGID_42_" x="14.899" y="2.794" width="7.386" height="21.184"/>
			</defs>
			<clipPath id="SVGID_5_">
				<use xlink:href="#SVGID_42_"  style="overflow:visible;"/>
			</clipPath>
			<path style="clip-path:url(#SVGID_5_);fill:#FFFFFF;" d="M8.81,7.88L9.011,20.73c0,0.915,0.501,1.567,1.365,1.567h9.048
				c0.866,0,1.049-0.652,1.049-1.567L20.99,7.88c0-0.912-0.7-1.654-1.566-1.654h-9.048C9.512,6.226,8.81,6.968,8.81,7.88z
				 M18.529,13.03H15.29V9.633h3.239c0.92,0,1.669,0.76,1.669,1.698C20.198,12.268,19.449,13.03,18.529,13.03z M17.954,17.802
				c0-0.55,0.433-0.992,0.966-0.992c0.534,0,0.965,0.442,0.965,0.992c0,0.548-0.432,0.994-0.965,0.994
				C18.387,18.796,17.954,18.35,17.954,17.802z M9.773,17.802c0-0.55,0.432-0.992,0.967-0.992c0.531,0,0.962,0.442,0.962,0.992
				c0,0.548-0.431,0.994-0.962,0.994C10.206,18.796,9.773,18.35,9.773,17.802z M9.602,11.331c0-0.938,0.748-1.698,1.669-1.698h3.416
				v3.397h-3.416C10.35,13.03,9.602,12.268,9.602,11.331z"/>
		</g>
	</g>
</g>
</svg>
