<?xml version="1.0" encoding="iso-8859-1"?>
<!-- Generator: Adobe Illustrator 16.0.0, SVG Export Plug-In . SVG Version: 6.00 Build 0)  -->
<!DOCTYPE svg PUBLIC "-//W3C//DTD SVG 1.1//EN" "http://www.w3.org/Graphics/SVG/1.1/DTD/svg11.dtd">
<svg version="1.1" xmlns="http://www.w3.org/2000/svg" xmlns:xlink="http://www.w3.org/1999/xlink" x="0px" y="0px"
	 width="29.798px" height="29.8px" viewBox="0 0 29.798 29.8" style="enable-background:new 0 0 29.798 29.8;" xml:space="preserve"
	>
<g id="&#x5716;&#x5C64;_2">
</g>
<g id="&#x5716;&#x5C64;_3">
	<g>
		<path style="fill:#E56C4E;" d="M29.798,26.443c0,1.854-1.501,3.356-3.353,3.356H3.354C1.502,29.8,0,28.298,0,26.443V3.354
			C0,1.503,1.502,0,3.354,0h23.091c1.852,0,3.353,1.503,3.353,3.354V26.443z"/>
		<g>
			<path style="fill:#FFFFFF;" d="M22.908,18.288l-3.457-4.263H14.9h-4.552L6.89,18.288H6.782v5.304h16.235v-5.304H22.908z
				 M9.344,21.302c-0.572,0-1.036-0.444-1.036-0.994c0-0.549,0.464-0.993,1.036-0.993c0.57,0,1.034,0.444,1.034,0.993
				C10.377,20.857,9.914,21.302,9.344,21.302z M8.808,17.943l1.975-2.969l4.117-0.048l4.116,0.048l1.974,2.969H14.9H8.808z
				 M20.583,21.302c-0.574,0-1.037-0.444-1.037-0.994c0-0.549,0.463-0.993,1.037-0.993c0.569,0,1.035,0.444,1.035,0.993
				C21.618,20.857,21.152,21.302,20.583,21.302z"/>
			<path style="fill:#FFFFFF;" d="M9.262,21.744c0.651,0,1.181,0.312,1.181,0.699v2.641c0,0.386-0.53,0.698-1.181,0.698l0,0
				c-0.652,0-1.183-0.313-1.183-0.698v-2.641C8.08,22.056,8.61,21.744,9.262,21.744L9.262,21.744z"/>
			<path style="fill:#FFFFFF;" d="M20.722,21.744c0.653,0,1.181,0.312,1.181,0.699v2.641c0,0.386-0.528,0.698-1.181,0.698l0,0
				c-0.654,0-1.18-0.313-1.18-0.698v-2.641C19.542,22.056,20.068,21.744,20.722,21.744L20.722,21.744z"/>
		</g>
		<g>
			<polygon style="fill:#FFFFFF;" points="7.186,7.925 7.186,9.115 7.505,9.115 7.505,10.307 8.033,10.307 8.033,9.115 8.908,9.115 
				8.908,10.307 9.436,10.307 9.436,9.115 17.039,9.115 17.039,7.925 			"/>
			<circle style="fill:none;stroke:#FFFFFF;stroke-miterlimit:10;" cx="19.736" cy="8.539" r="2.877"/>
		</g>
	</g>
</g>
</svg>
