<?xml version="1.0" encoding="iso-8859-1"?>
<!-- Generator: Adobe Illustrator 16.0.0, SVG Export Plug-In . SVG Version: 6.00 Build 0)  -->
<!DOCTYPE svg PUBLIC "-//W3C//DTD SVG 1.1//EN" "http://www.w3.org/Graphics/SVG/1.1/DTD/svg11.dtd">
<svg version="1.1" xmlns="http://www.w3.org/2000/svg" xmlns:xlink="http://www.w3.org/1999/xlink" x="0px" y="0px"
	 width="29.798px" height="29.8px" viewBox="0 0 29.798 29.8" style="enable-background:new 0 0 29.798 29.8;" xml:space="preserve"
	>
<g id="&#x5716;&#x5C64;_2">
</g>
<g id="&#x5716;&#x5C64;_3">
	<g>
		<g>
			<path style="fill:#E56C4E;" d="M29.798,26.445c0,1.852-1.504,3.354-3.355,3.354H3.353C1.5,29.8,0,28.297,0,26.445V3.356
				C0,1.504,1.5,0,3.353,0h23.09c1.851,0,3.355,1.504,3.355,3.356V26.445z"/>
			<g>
				<g>
					<path style="fill:#FFFFFF;" d="M23.666,17.327l-3.783-4.808H14.9H9.914L6.13,17.327H6.009v5.977h17.777v-5.977H23.666z
						 M8.815,20.725c-0.625,0-1.133-0.499-1.133-1.119c0-0.617,0.508-1.12,1.133-1.12c0.627,0,1.134,0.503,1.134,1.12
						C9.949,20.226,9.442,20.725,8.815,20.725z M8.228,16.938l2.163-3.347l4.509-0.055l4.505,0.055l2.165,3.347H14.9H8.228z
						 M21.121,20.725c-0.626,0-1.134-0.499-1.134-1.119c0-0.617,0.508-1.12,1.134-1.12c0.625,0,1.131,0.503,1.131,1.12
						C22.252,20.226,21.745,20.725,21.121,20.725z"/>
					<path style="fill:#FFFFFF;" d="M8.725,21.226c0.715,0,1.293,0.352,1.293,0.784v2.982c0,0.433-0.578,0.782-1.293,0.782l0,0
						c-0.714,0-1.293-0.35-1.293-0.782V22.01C7.432,21.577,8.011,21.226,8.725,21.226L8.725,21.226z"/>
					<path style="fill:#FFFFFF;" d="M21.275,21.226c0.712,0,1.291,0.352,1.291,0.784v2.982c0,0.433-0.579,0.782-1.291,0.782l0,0
						c-0.714,0-1.293-0.35-1.293-0.782V22.01C19.982,21.577,20.561,21.226,21.275,21.226L21.275,21.226z"/>
				</g>
				<rect x="12.471" y="11.354" style="fill:#FFFFFF;" width="4.855" height="1.357"/>
			</g>
		</g>
		<g>
			<path style="fill:#FFFFFF;" d="M9.525,5.76h1.927v0.652h-0.635v2.832h-0.672V6.412H9.525V5.76z"/>
			<path style="fill:#FFFFFF;" d="M13.214,5.76h0.673l1.341,3.484H14.54l-0.274-0.717h-1.423l-0.284,0.717h-0.69L13.214,5.76z
				 M13.554,6.684l-0.467,1.197h0.934L13.554,6.684z"/>
			<path style="fill:#FFFFFF;" d="M15.758,5.76h0.747l0.733,1.117l0.735-1.117h0.746l-1.107,1.688l1.176,1.796h-0.747L17.24,8.021
				l-0.803,1.224h-0.751l1.179-1.797L15.758,5.76z"/>
			<path style="fill:#FFFFFF;" d="M19.483,5.76h0.659v3.484h-0.659V5.76z"/>
		</g>
	</g>
</g>
</svg>
