<?xml version="1.0" encoding="iso-8859-1"?>
<!-- Generator: Adobe Illustrator 16.0.0, SVG Export Plug-In . SVG Version: 6.00 Build 0)  -->
<!DOCTYPE svg PUBLIC "-//W3C//DTD SVG 1.1//EN" "http://www.w3.org/Graphics/SVG/1.1/DTD/svg11.dtd">
<svg version="1.1" xmlns="http://www.w3.org/2000/svg" xmlns:xlink="http://www.w3.org/1999/xlink" x="0px" y="0px"
	 width="29.539px" height="29.54px" viewBox="0 0 29.539 29.54" style="enable-background:new 0 0 29.539 29.54;"
	 xml:space="preserve">
<g id="&#x5716;&#x5C64;_2">
</g>
<g id="&#x5716;&#x5C64;_3">
	<g>
		<path style="fill:#E56C4E;" d="M29.539,26.215c0,1.836-1.486,3.325-3.325,3.325H3.324C1.487,29.54,0,28.051,0,26.215V3.325
			C0,1.49,1.487,0,3.324,0h22.89c1.839,0,3.325,1.49,3.325,3.325V26.215z"/>
		<g>
			<polygon style="fill:#FFFFFF;" points="19.753,18.625 19.763,19.085 24.869,16.828 24.863,16.376 			"/>
			<polygon style="fill:#FFFFFF;" points="19.768,19.401 19.779,19.862 24.885,17.608 24.876,17.152 			"/>
			<polygon style="fill:#FFFFFF;" points="19.785,20.174 19.795,20.638 24.903,18.383 24.892,17.928 			"/>
			<polygon style="opacity:0.8;fill:#FFFFFF;" points="19.681,14.749 19.669,14.323 24.863,16.376 24.357,16.6 			"/>
			<polygon style="opacity:0.8;fill:#FFFFFF;" points="19.697,15.525 19.684,15.101 23.94,16.782 23.434,17.006 			"/>
			<polygon style="opacity:0.8;fill:#FFFFFF;" points="19.71,16.304 19.7,15.876 23.018,17.189 22.512,17.412 			"/>
		</g>
		<g>
			<g>
				<rect x="6.423" y="22.052" style="fill:#FFFFFF;" width="1.662" height="2.674"/>
				<rect x="3.438" y="22.052" style="fill:#FFFFFF;" width="1.66" height="2.674"/>
			</g>
			<g>
				<rect x="12.429" y="22.052" style="fill:#FFFFFF;" width="1.662" height="2.674"/>
				<rect x="9.442" y="22.052" style="fill:#FFFFFF;" width="1.662" height="2.674"/>
			</g>
			<g>
				<rect x="18.365" y="22.052" style="fill:#FFFFFF;" width="1.66" height="2.674"/>
				<rect x="15.379" y="22.052" style="fill:#FFFFFF;" width="1.664" height="2.674"/>
			</g>
			<g>
				<rect x="24.438" y="22.052" style="fill:#FFFFFF;" width="1.662" height="2.674"/>
				<rect x="21.455" y="22.052" style="fill:#FFFFFF;" width="1.661" height="2.674"/>
			</g>
		</g>
		<g>
			<path style="fill:#FFFFFF;" d="M13.625,14.684h-2.087c0.004-0.03,0.011-0.066,0.011-0.101c0-0.396-0.322-0.721-0.716-0.721H8.824
				c-0.398,0-0.72,0.325-0.72,0.721c0,0.034,0.007,0.07,0.011,0.101H6.027c-0.453,0-0.818,0.369-0.818,0.823v4.768
				c0,0.454,0.366,0.818,0.818,0.818h7.598c0.454,0,0.821-0.364,0.821-0.818v-4.768C14.446,15.053,14.079,14.684,13.625,14.684z"/>
			<path style="fill:#E56C4E;" d="M10.847,14.688c0,0.104-0.085,0.191-0.189,0.191h-1.66c-0.103,0-0.189-0.087-0.189-0.191l0,0
				c0-0.103,0.087-0.185,0.189-0.185h1.66C10.761,14.503,10.847,14.585,10.847,14.688L10.847,14.688z"/>
		</g>
	</g>
</g>
</svg>
