<?xml version="1.0" encoding="iso-8859-1"?>
<!-- Generator: Adobe Illustrator 16.0.0, SVG Export Plug-In . SVG Version: 6.00 Build 0)  -->
<!DOCTYPE svg PUBLIC "-//W3C//DTD SVG 1.1//EN" "http://www.w3.org/Graphics/SVG/1.1/DTD/svg11.dtd">
<svg version="1.1" xmlns="http://www.w3.org/2000/svg" xmlns:xlink="http://www.w3.org/1999/xlink" x="0px" y="0px" width="29.65px"
	 height="29.647px" viewBox="0 0 29.65 29.647" style="enable-background:new 0 0 29.65 29.647;" xml:space="preserve">
<g id="&#x5716;&#x5C64;_2">
</g>
<g id="&#x5716;&#x5C64;_3">
	<g>
		<path style="fill:#2A78B2;" d="M29.65,26.31c0,1.844-1.494,3.338-3.339,3.338H3.338C1.493,29.647,0,28.153,0,26.31V3.338
			C0,1.494,1.493,0,3.338,0h22.974c1.845,0,3.339,1.494,3.339,3.338V26.31z"/>
		<g>
			<path style="fill:#595757;stroke:#FFFFFF;stroke-width:0.5;stroke-miterlimit:10;" d="M24.95,11.154
				c0,2.086-1.496,3.775-3.346,3.775H8.044c-1.848,0-3.345-1.689-3.345-3.775v-0.209c0-2.086,1.497-3.772,3.345-3.772h13.561
				c1.85,0,3.346,1.687,3.346,3.772V11.154z"/>
			<g>
				<rect x="10.052" y="11.166" style="fill:#FFFFFF;stroke:#C9CACA;stroke-miterlimit:10;" width="9.364" height="13.057"/>
				<rect x="9.239" y="10.66" style="fill:#EFEFEF;" width="10.987" height="0.781"/>
			</g>
			<rect x="10.894" y="11.441" style="fill:#2A78B2;" width="1.266" height="7.357"/>
			<rect x="10.894" y="22.612" style="fill:#2A78B2;" width="1.266" height="1.454"/>
		</g>
	</g>
</g>
</svg>
