<?xml version="1.0" encoding="iso-8859-1"?>
<!-- Generator: Adobe Illustrator 16.0.0, SVG Export Plug-In . SVG Version: 6.00 Build 0)  -->
<!DOCTYPE svg PUBLIC "-//W3C//DTD SVG 1.1//EN" "http://www.w3.org/Graphics/SVG/1.1/DTD/svg11.dtd">
<svg version="1.1" xmlns="http://www.w3.org/2000/svg" xmlns:xlink="http://www.w3.org/1999/xlink" x="0px" y="0px"
	 width="30.031px" height="30.031px" viewBox="0 0 30.031 30.031" style="enable-background:new 0 0 30.031 30.031;"
	 xml:space="preserve">
<g id="&#x5716;&#x5C64;_2">
</g>
<g id="&#x5716;&#x5C64;_3">
	<g>
		<path style="fill:#2A78B2;" d="M30.031,26.65c0,1.867-1.513,3.381-3.38,3.381H3.383C1.514,30.031,0,28.518,0,26.65V3.382
			C0,1.515,1.514,0,3.383,0h23.269c1.867,0,3.38,1.515,3.38,3.382V26.65z"/>
		<g>
			<path style="fill:#FFFFFF;" d="M12.773,14.928h-2.118c0.005-0.032,0.008-0.067,0.008-0.104c0-0.402-0.326-0.73-0.729-0.73H7.892
				c-0.4,0-0.73,0.328-0.73,0.73c0,0.036,0.004,0.071,0.01,0.104h-2.12c-0.458,0-0.833,0.375-0.833,0.836v4.848
				c0,0.461,0.375,0.834,0.833,0.834h7.723c0.463,0,0.835-0.373,0.835-0.834v-4.848C13.608,15.303,13.236,14.928,12.773,14.928z"/>
			<path style="fill:#2A78B2;" d="M9.948,14.933c0,0.105-0.084,0.193-0.189,0.193H8.07c-0.106,0-0.194-0.088-0.194-0.193l0,0
				c0-0.106,0.088-0.19,0.194-0.19h1.688C9.864,14.742,9.948,14.826,9.948,14.933L9.948,14.933z"/>
		</g>
		<g>
			<g>
				<rect x="6.556" y="22.416" style="fill:#FFFFFF;" width="1.689" height="2.72"/>
				<rect x="3.521" y="22.416" style="fill:#FFFFFF;" width="1.689" height="2.72"/>
			</g>
			<g>
				<rect x="12.662" y="22.416" style="fill:#FFFFFF;" width="1.689" height="2.72"/>
				<rect x="9.628" y="22.416" style="fill:#FFFFFF;" width="1.688" height="2.72"/>
			</g>
			<g>
				<rect x="19.173" y="9.128" style="fill:#FFFFFF;" width="1.668" height="16.008"/>
				<rect x="15.534" y="9.128" style="fill:#FFFFFF;" width="3.002" height="16.008"/>
			</g>
			<g>
				<rect x="24.875" y="22.416" style="fill:#FFFFFF;" width="1.687" height="2.72"/>
				<rect x="21.838" y="22.416" style="fill:#FFFFFF;" width="1.69" height="2.72"/>
			</g>
		</g>
	</g>
</g>
</svg>
