<?xml version="1.0" encoding="iso-8859-1"?>
<!-- Generator: Adobe Illustrator 16.0.0, SVG Export Plug-In . SVG Version: 6.00 Build 0)  -->
<!DOCTYPE svg PUBLIC "-//W3C//DTD SVG 1.1//EN" "http://www.w3.org/Graphics/SVG/1.1/DTD/svg11.dtd">
<svg version="1.1" xmlns="http://www.w3.org/2000/svg" xmlns:xlink="http://www.w3.org/1999/xlink" x="0px" y="0px"
	 width="29.971px" height="29.97px" viewBox="0 0 29.971 29.97" style="enable-background:new 0 0 29.971 29.97;"
	 xml:space="preserve">
<g id="&#x5716;&#x5C64;_2">
</g>
<g id="&#x5716;&#x5C64;_3">
	<g>
		<path style="fill:#2A78B2;" d="M29.971,26.597c0,1.862-1.512,3.373-3.377,3.373H3.375C1.509,29.97,0,28.459,0,26.597V3.375
			C0,1.511,1.509,0,3.375,0h23.219c1.865,0,3.377,1.511,3.377,3.375V26.597z"/>
		<g>
			<g>
				<rect x="5.386" y="25.61" style="fill:#FFFFFF;" width="19.198" height="1.148"/>
			</g>
			<rect x="6.687" y="7.042" style="fill:#FFFFFF;" width="1.148" height="18.686"/>
			<g>
				<path style="fill:#FFFFFF;" d="M13.398,15.155c0.009-0.095,0.047-0.175,0.117-0.24c0.07-0.066,0.152-0.1,0.246-0.1h2.892
					c0.101,0,0.186,0.034,0.257,0.104c0.069,0.07,0.104,0.157,0.104,0.258c0,0.103-0.035,0.189-0.104,0.258
					c-0.071,0.07-0.156,0.105-0.257,0.105h-2.588l-0.304,1.86c0.358-0.172,0.734-0.258,1.123-0.258c0.352,0,0.684,0.069,0.994,0.206
					c0.313,0.137,0.586,0.322,0.821,0.555c0.233,0.234,0.42,0.508,0.556,0.819c0.136,0.313,0.203,0.646,0.203,0.994
					c0,0.353-0.067,0.686-0.203,0.995c-0.136,0.312-0.322,0.586-0.556,0.821c-0.235,0.232-0.509,0.419-0.821,0.555
					c-0.311,0.136-0.643,0.206-0.994,0.206c-0.499,0-0.95-0.128-1.35-0.38c-0.404-0.254-0.719-0.589-0.943-1.003
					c-0.055-0.085-0.084-0.184-0.084-0.291c0-0.086,0.029-0.163,0.084-0.229c0.053-0.066,0.134-0.101,0.246-0.101
					c0.085,0,0.165,0.032,0.24,0.095c0.074,0.063,0.135,0.137,0.18,0.221c0.156,0.289,0.381,0.521,0.667,0.698
					c0.289,0.175,0.608,0.264,0.96,0.264c0.258,0,0.497-0.049,0.721-0.147c0.222-0.098,0.417-0.23,0.586-0.399
					c0.168-0.166,0.299-0.362,0.396-0.583c0.097-0.223,0.147-0.464,0.147-0.722c0-0.257-0.051-0.496-0.147-0.717
					c-0.098-0.225-0.229-0.419-0.396-0.589c-0.169-0.166-0.364-0.297-0.586-0.396c-0.224-0.097-0.463-0.145-0.721-0.145
					c-0.1,0-0.215,0.008-0.338,0.022c-0.125,0.016-0.245,0.044-0.365,0.081c-0.116,0.041-0.226,0.092-0.326,0.154
					c-0.102,0.061-0.184,0.14-0.246,0.233c-0.063,0.086-0.12,0.154-0.174,0.211c-0.057,0.056-0.13,0.081-0.223,0.081
					c-0.095,0-0.173-0.036-0.235-0.104c-0.063-0.07-0.094-0.15-0.094-0.235c0-0.016,0.003-0.027,0.006-0.036
					c0.005-0.007,0.005-0.019,0.005-0.035L13.398,15.155z"/>
			</g>
			<g>
				<rect x="22.136" y="7.042" style="fill:#FFFFFF;" width="1.147" height="18.572"/>
				<rect x="6.687" y="4.496" style="fill:#FFFFFF;" width="16.597" height="6.896"/>
				<g>
					<polygon style="fill:#2A78B2;" points="18.779,6.974 12.991,10.021 12.206,9.572 17.814,6.284 					"/>
					
						<rect x="12.11" y="6.63" transform="matrix(0.9151 0.4032 -0.4032 0.9151 4.0865 -5.0821)" style="fill:#2A78B2;" width="4.006" height="1.068"/>
					
						<rect x="11.585" y="8.825" transform="matrix(0.9147 0.4041 -0.4041 0.9147 4.8059 -4.2252)" style="fill:#2A78B2;" width="1.658" height="0.899"/>
				</g>
			</g>
		</g>
	</g>
</g>
</svg>
