<?xml version="1.0" encoding="iso-8859-1"?>
<!-- Generator: Adobe Illustrator 16.0.0, SVG Export Plug-In . SVG Version: 6.00 Build 0)  -->
<!DOCTYPE svg PUBLIC "-//W3C//DTD SVG 1.1//EN" "http://www.w3.org/Graphics/SVG/1.1/DTD/svg11.dtd">
<svg version="1.1" xmlns="http://www.w3.org/2000/svg" xmlns:xlink="http://www.w3.org/1999/xlink" x="0px" y="0px"
	 width="29.972px" height="29.971px" viewBox="0 0 29.972 29.971" style="enable-background:new 0 0 29.972 29.971;"
	 xml:space="preserve">
<g id="&#x5716;&#x5C64;_2">
</g>
<g id="&#x5716;&#x5C64;_3">
	<g>
		<path style="fill:#2A78B2;" d="M26.599,0c1.862,0,3.373,1.51,3.373,3.375v23.222c0,1.863-1.511,3.374-3.373,3.374H3.376
			C1.512,29.971,0,28.46,0,26.597V3.375C0,1.51,1.512,0,3.376,0H26.599z"/>
		<g>
			<polygon style="fill:#FFFFFF;" points="27.862,17.67 5.646,17.817 3.974,15.244 26.031,14.079 			"/>
			
				<rect x="6.679" y="9.141" transform="matrix(0.6276 0.7785 -0.7785 0.6276 13.5517 -6.4188)" style="fill:#FFFFFF;" width="13.612" height="3.629"/>
			
				<rect x="2.253" y="13.141" transform="matrix(0.6275 0.7786 -0.7786 0.6275 13.3077 1.5174)" style="fill:#FFFFFF;" width="5.63" height="3.054"/>
		</g>
		<g>
			<path style="fill:#FFFFFF;" d="M14.73,21.815c0.018-0.044,0.048-0.087,0.092-0.13c0.044-0.041,0.095-0.062,0.149-0.062
				c0.057,0,0.105,0.02,0.15,0.059s0.077,0.084,0.101,0.133l2.061,4.781c0.01,0.021,0.018,0.056,0.018,0.101
				c0,0.066-0.024,0.124-0.066,0.173c-0.046,0.05-0.106,0.075-0.186,0.075c-0.116,0-0.197-0.051-0.241-0.158l-0.668-1.525h-2.344
				l-0.667,1.525c-0.023,0.051-0.055,0.088-0.102,0.116c-0.044,0.028-0.09,0.042-0.141,0.042c-0.079,0-0.142-0.025-0.189-0.075
				c-0.046-0.049-0.069-0.106-0.069-0.173c0-0.033,0.007-0.065,0.025-0.101L14.73,21.815z M14.972,22.593l-0.95,2.151h1.892
				L14.972,22.593z"/>
		</g>
	</g>
</g>
</svg>
