<?xml version="1.0" encoding="iso-8859-1"?>
<!-- Generator: Adobe Illustrator 16.0.0, SVG Export Plug-In . SVG Version: 6.00 Build 0)  -->
<!DOCTYPE svg PUBLIC "-//W3C//DTD SVG 1.1//EN" "http://www.w3.org/Graphics/SVG/1.1/DTD/svg11.dtd">
<svg version="1.1" xmlns="http://www.w3.org/2000/svg" xmlns:xlink="http://www.w3.org/1999/xlink" x="0px" y="0px"
	 width="29.971px" height="29.972px" viewBox="0 0 29.971 29.972" style="enable-background:new 0 0 29.971 29.972;"
	 xml:space="preserve">
<g id="&#x5716;&#x5C64;_2">
</g>
<g id="&#x5716;&#x5C64;_3">
	<g>
		<path style="fill:#2A78B2;" d="M29.971,26.598c0,1.863-1.511,3.374-3.373,3.374H3.375C1.512,29.972,0,28.461,0,26.598V3.376
			C0,1.512,1.512,0,3.375,0h23.223c1.862,0,3.373,1.512,3.373,3.376V26.598z"/>
		<rect y="25.623" style="fill:#FFFFFF;" width="11.232" height="1.124"/>
		<g>
			<polygon style="fill:#FFFFFF;" points="27.383,8.622 13.463,15.945 11.573,14.872 25.063,6.96 			"/>
			
				<rect x="11.342" y="7.794" transform="matrix(0.9153 0.4028 -0.4028 0.9153 5.0263 -5.7404)" style="fill:#FFFFFF;" width="9.637" height="2.57"/>
			
				<rect x="10.083" y="13.071" transform="matrix(0.9152 0.403 -0.403 0.9152 6.7264 -3.6659)" style="fill:#FFFFFF;" width="3.984" height="2.164"/>
		</g>
	</g>
</g>
</svg>
