<?xml version="1.0" encoding="iso-8859-1"?>
<!-- Generator: Adobe Illustrator 16.0.0, SVG Export Plug-In . SVG Version: 6.00 Build 0)  -->
<!DOCTYPE svg PUBLIC "-//W3C//DTD SVG 1.1//EN" "http://www.w3.org/Graphics/SVG/1.1/DTD/svg11.dtd">
<svg version="1.1" xmlns="http://www.w3.org/2000/svg" xmlns:xlink="http://www.w3.org/1999/xlink" x="0px" y="0px"
	 width="29.971px" height="29.97px" viewBox="0 0 29.971 29.97" style="enable-background:new 0 0 29.971 29.97;"
	 xml:space="preserve">
<g id="&#x5716;&#x5C64;_2">
</g>
<g id="&#x5716;&#x5C64;_3">
	<g>
		<path style="fill:#2A78B2;" d="M29.971,26.597c0,1.862-1.512,3.373-3.376,3.373H3.374C1.51,29.97,0,28.459,0,26.597V3.375
			C0,1.512,1.51,0,3.374,0h23.221c1.864,0,3.376,1.512,3.376,3.375V26.597z"/>
		<g>
			<g>
				<polygon style="fill:#FFFFFF;" points="18.978,22.9 10.53,24.193 9.751,23.309 18.079,21.635 				"/>
				
					<rect x="10.513" y="20.449" transform="matrix(0.7338 0.6793 -0.6793 0.7338 17.8606 -3.2914)" style="fill:#FFFFFF;" width="5.235" height="1.395"/>
				
					<rect x="9.052" y="22.439" transform="matrix(0.7349 0.6781 -0.6781 0.7349 18.3018 -0.7691)" style="fill:#FFFFFF;" width="2.166" height="1.177"/>
			</g>
			<g>
				<path style="fill:none;stroke:#FFFFFF;stroke-miterlimit:10;" d="M22.308,22.174c0,3.271-2.897,5.922-6.471,5.922h-1.193
					c-3.572,0-6.471-2.65-6.471-5.922V9.515c0-3.271,2.898-5.923,6.471-5.923h1.193c3.573,0,6.471,2.651,6.471,5.923V22.174z"/>
				<rect x="8.218" y="8.099" style="fill:#FFFFFF;" width="14.09" height="6.464"/>
				<g>
					<path style="opacity:0.8;fill:#2A78B2;" d="M13.642,9.732c0.012-0.027,0.031-0.055,0.059-0.082
						c0.031-0.028,0.063-0.04,0.1-0.04c0.033,0,0.066,0.012,0.098,0.038c0.025,0.023,0.047,0.055,0.063,0.084l1.329,3.085
						c0.008,0.015,0.013,0.037,0.013,0.065c0,0.042-0.016,0.08-0.043,0.112c-0.031,0.032-0.07,0.048-0.121,0.048
						c-0.074,0-0.127-0.034-0.156-0.102l-0.429-0.985h-1.512l-0.433,0.985c-0.014,0.032-0.035,0.06-0.064,0.075
						c-0.029,0.019-0.059,0.026-0.092,0.026c-0.051,0-0.09-0.016-0.12-0.048s-0.046-0.07-0.046-0.112
						c0-0.021,0.005-0.042,0.016-0.065L13.642,9.732z M13.8,10.233l-0.615,1.39h1.222L13.8,10.233z"/>
					<path style="opacity:0.8;fill:#2A78B2;" d="M16.37,9.768c0.006-0.045,0.025-0.082,0.057-0.112s0.07-0.045,0.111-0.045h1.33
						c0.045,0,0.086,0.015,0.118,0.047c0.032,0.034,0.049,0.072,0.049,0.12c0,0.047-0.017,0.086-0.049,0.117
						c-0.032,0.033-0.073,0.049-0.118,0.049h-1.19l-0.14,0.856c0.167-0.08,0.338-0.119,0.517-0.119c0.162,0,0.315,0.03,0.459,0.094
						c0.144,0.064,0.269,0.149,0.376,0.258c0.107,0.106,0.193,0.233,0.254,0.376c0.064,0.143,0.096,0.295,0.096,0.456
						s-0.031,0.315-0.096,0.458c-0.061,0.143-0.146,0.27-0.254,0.376c-0.107,0.109-0.232,0.193-0.376,0.259
						c-0.144,0.06-0.297,0.091-0.459,0.091c-0.228,0-0.436-0.058-0.62-0.174c-0.188-0.117-0.33-0.271-0.436-0.46
						c-0.023-0.039-0.037-0.084-0.037-0.134c0-0.041,0.014-0.075,0.037-0.104c0.025-0.031,0.064-0.046,0.114-0.046
						c0.038,0,0.076,0.013,0.11,0.043c0.033,0.027,0.063,0.062,0.082,0.102c0.074,0.132,0.176,0.239,0.306,0.319
						c0.135,0.081,0.284,0.12,0.443,0.12c0.119,0,0.229-0.022,0.331-0.065c0.103-0.045,0.193-0.105,0.27-0.184
						c0.076-0.076,0.139-0.166,0.182-0.27c0.047-0.102,0.068-0.211,0.068-0.331c0-0.117-0.021-0.228-0.068-0.33
						c-0.043-0.102-0.105-0.191-0.182-0.269c-0.076-0.078-0.167-0.139-0.27-0.185c-0.102-0.044-0.212-0.065-0.331-0.065
						c-0.048,0-0.098,0.004-0.155,0.009c-0.059,0.008-0.114,0.021-0.167,0.039c-0.055,0.018-0.104,0.042-0.151,0.069
						c-0.045,0.029-0.082,0.064-0.113,0.107c-0.027,0.041-0.055,0.072-0.08,0.099c-0.025,0.023-0.059,0.036-0.102,0.036
						c-0.045,0-0.079-0.017-0.108-0.049c-0.028-0.031-0.044-0.068-0.044-0.107c0-0.006,0.003-0.012,0.005-0.016
						c0,0,0.002-0.01,0.002-0.016L16.37,9.768z"/>
				</g>
			</g>
		</g>
		<path style="fill:#FFFFFF;" d="M16.423,5.641c0,0.228-0.297,0.412-0.665,0.412h-0.991c-0.366,0-0.663-0.185-0.663-0.412l0,0
			c0-0.227,0.297-0.411,0.663-0.411h0.991C16.126,5.229,16.423,5.414,16.423,5.641L16.423,5.641z"/>
	</g>
</g>
</svg>
