<?xml version="1.0" encoding="iso-8859-1"?>
<!-- Generator: Adobe Illustrator 16.0.0, SVG Export Plug-In . SVG Version: 6.00 Build 0)  -->
<!DOCTYPE svg PUBLIC "-//W3C//DTD SVG 1.1//EN" "http://www.w3.org/Graphics/SVG/1.1/DTD/svg11.dtd">
<svg version="1.1" id="&#x5716;&#x5C64;_1" xmlns="http://www.w3.org/2000/svg" xmlns:xlink="http://www.w3.org/1999/xlink" x="0px"
	 y="0px" width="256.197px" height="45.084px" viewBox="0 0 256.197 45.084" style="enable-background:new 0 0 256.197 45.084;"
	 xml:space="preserve">
<g>
	<path style="fill:#3F7AAE;" d="M233.697,0.084V0H22.5C10.073,0,0,10.073,0,22.5S10.073,45,22.5,45v0.084h211.197
		c12.427,0,22.5-10.073,22.5-22.5S246.124,0.084,233.697,0.084z"/>
	<g>
		<path style="fill:#FFFFFF;" d="M22.5,19.045h2.133v0.977c0.365-0.401,0.77-0.701,1.216-0.898c0.445-0.198,0.932-0.297,1.458-0.297
			c0.531,0,1.011,0.13,1.438,0.391c0.428,0.26,0.771,0.641,1.032,1.141c0.339-0.5,0.754-0.881,1.247-1.141
			c0.492-0.261,1.03-0.391,1.614-0.391c0.604,0,1.136,0.141,1.595,0.422s0.788,0.648,0.989,1.102c0.2,0.453,0.301,1.189,0.301,2.211
			v4.984h-2.148v-4.313c0-0.964-0.12-1.616-0.359-1.957c-0.239-0.342-0.599-0.512-1.078-0.512c-0.364,0-0.691,0.104-0.98,0.313
			c-0.289,0.208-0.504,0.496-0.645,0.863s-0.211,0.957-0.211,1.77v3.836h-2.148v-4.117c0-0.761-0.057-1.312-0.168-1.652
			c-0.112-0.342-0.281-0.596-0.506-0.762c-0.225-0.167-0.496-0.25-0.814-0.25c-0.354,0-0.677,0.105-0.967,0.316
			s-0.506,0.506-0.65,0.887c-0.143,0.38-0.215,0.979-0.215,1.797v3.781H22.5V19.045z"/>
		<path style="fill:#FFFFFF;" d="M42.747,18.826c0.802,0,1.556,0.2,2.262,0.602c0.706,0.4,1.257,0.945,1.652,1.633
			s0.594,1.43,0.594,2.227c0,0.802-0.199,1.552-0.598,2.25c-0.398,0.697-0.941,1.243-1.629,1.637
			c-0.688,0.393-1.445,0.59-2.273,0.59c-1.219,0-2.259-0.434-3.121-1.301s-1.293-1.921-1.293-3.16c0-1.328,0.487-2.436,1.461-3.32
			C40.656,19.211,41.638,18.826,42.747,18.826z M42.782,20.834c-0.662,0-1.215,0.23-1.655,0.691s-0.661,1.051-0.661,1.77
			c0,0.739,0.218,1.338,0.653,1.797c0.436,0.458,0.987,0.688,1.655,0.688s1.224-0.232,1.667-0.695
			c0.443-0.464,0.665-1.061,0.665-1.789c0-0.729-0.218-1.322-0.653-1.777C44.018,21.062,43.46,20.834,42.782,20.834z"/>
		<path style="fill:#FFFFFF;" d="M49.697,19.045h1.828v1.07c0.198-0.422,0.461-0.742,0.789-0.961s0.688-0.328,1.078-0.328
			c0.276,0,0.565,0.072,0.867,0.219l-0.664,1.836c-0.25-0.125-0.456-0.188-0.617-0.188c-0.328,0-0.605,0.203-0.832,0.609
			s-0.34,1.203-0.34,2.391l0.008,0.414v3.438h-2.117V19.045z"/>
		<path style="fill:#FFFFFF;" d="M65.029,23.912h-6.852c0.099,0.604,0.363,1.084,0.793,1.441c0.43,0.356,0.978,0.535,1.645,0.535
			c0.797,0,1.481-0.279,2.055-0.836l1.797,0.844c-0.448,0.635-0.984,1.105-1.609,1.41s-1.367,0.457-2.227,0.457
			c-1.333,0-2.419-0.421-3.258-1.262c-0.839-0.842-1.258-1.895-1.258-3.16c0-1.297,0.418-2.374,1.254-3.23
			c0.836-0.857,1.884-1.285,3.145-1.285c1.339,0,2.427,0.428,3.266,1.285c0.839,0.856,1.258,1.988,1.258,3.395L65.029,23.912z
			 M62.896,22.232c-0.141-0.475-0.419-0.859-0.834-1.156c-0.414-0.297-0.896-0.445-1.443-0.445c-0.595,0-1.116,0.166-1.565,0.5
			c-0.281,0.208-0.542,0.575-0.782,1.102H62.896z"/>
		<path style="fill:#FFFFFF;" d="M74.465,15.545c0.374,0,0.694,0.135,0.962,0.406c0.268,0.271,0.401,0.599,0.401,0.984
			c0,0.38-0.133,0.704-0.397,0.973c-0.265,0.268-0.581,0.402-0.95,0.402c-0.379,0-0.702-0.137-0.97-0.41s-0.401-0.605-0.401-0.996
			c0-0.375,0.133-0.695,0.397-0.961S74.091,15.545,74.465,15.545z M73.398,19.045h2.133v8.5h-2.133V19.045z"/>
		<path style="fill:#FFFFFF;" d="M78.669,19.045h2.133v0.871c0.483-0.408,0.922-0.691,1.314-0.852
			c0.393-0.159,0.795-0.238,1.205-0.238c0.843,0,1.558,0.294,2.146,0.883c0.494,0.5,0.741,1.239,0.741,2.219v5.617h-2.109v-3.723
			c0-1.015-0.046-1.688-0.137-2.021c-0.091-0.332-0.249-0.586-0.476-0.76c-0.226-0.176-0.505-0.262-0.837-0.262
			c-0.432,0-0.802,0.145-1.111,0.433c-0.309,0.288-0.523,0.688-0.643,1.198c-0.063,0.266-0.094,0.84-0.094,1.725v3.41h-2.133V19.045
			z"/>
		<path style="fill:#FFFFFF;" d="M88.455,19.045h0.758c0.005-1.115,0.023-1.773,0.055-1.977c0.058-0.469,0.254-0.84,0.59-1.113
			s0.812-0.41,1.426-0.41c0.442,0,0.942,0.102,1.5,0.305v1.625c-0.308-0.089-0.56-0.133-0.758-0.133
			c-0.25,0-0.433,0.052-0.547,0.156c-0.083,0.078-0.125,0.239-0.125,0.484l-0.008,1.063h1.352v1.805h-1.352v6.695h-2.133V20.85
			h-0.758V19.045z"/>
		<path style="fill:#FFFFFF;" d="M99.139,18.826c0.802,0,1.556,0.2,2.262,0.602c0.706,0.4,1.257,0.945,1.652,1.633
			s0.594,1.43,0.594,2.227c0,0.802-0.199,1.552-0.598,2.25c-0.398,0.697-0.941,1.243-1.629,1.637
			c-0.688,0.393-1.445,0.59-2.273,0.59c-1.219,0-2.259-0.434-3.121-1.301s-1.293-1.921-1.293-3.16c0-1.328,0.487-2.436,1.461-3.32
			C97.048,19.211,98.029,18.826,99.139,18.826z M99.174,20.834c-0.662,0-1.215,0.23-1.655,0.691s-0.661,1.051-0.661,1.77
			c0,0.739,0.218,1.338,0.653,1.797c0.436,0.458,0.987,0.688,1.655,0.688s1.224-0.232,1.667-0.695
			c0.443-0.464,0.665-1.061,0.665-1.789c0-0.729-0.218-1.322-0.653-1.777C100.409,21.062,99.852,20.834,99.174,20.834z"/>
		<path style="fill:#FFFFFF;" d="M106.089,19.045h1.828v1.07c0.198-0.422,0.461-0.742,0.789-0.961s0.688-0.328,1.078-0.328
			c0.276,0,0.565,0.072,0.867,0.219l-0.664,1.836c-0.25-0.125-0.456-0.188-0.617-0.188c-0.328,0-0.605,0.203-0.832,0.609
			s-0.34,1.203-0.34,2.391l0.008,0.414v3.438h-2.117V19.045z"/>
		<path style="fill:#FFFFFF;" d="M112.891,19.045h2.133v0.977c0.365-0.401,0.77-0.701,1.216-0.898
			c0.445-0.198,0.932-0.297,1.458-0.297c0.531,0,1.011,0.13,1.438,0.391c0.428,0.26,0.771,0.641,1.032,1.141
			c0.339-0.5,0.754-0.881,1.247-1.141c0.492-0.261,1.03-0.391,1.614-0.391c0.604,0,1.136,0.141,1.595,0.422s0.788,0.648,0.989,1.102
			c0.2,0.453,0.301,1.189,0.301,2.211v4.984h-2.148v-4.313c0-0.964-0.12-1.616-0.359-1.957c-0.239-0.342-0.599-0.512-1.078-0.512
			c-0.364,0-0.691,0.104-0.98,0.313c-0.289,0.208-0.504,0.496-0.645,0.863s-0.211,0.957-0.211,1.77v3.836h-2.148v-4.117
			c0-0.761-0.057-1.312-0.168-1.652c-0.112-0.342-0.281-0.596-0.506-0.762c-0.225-0.167-0.496-0.25-0.814-0.25
			c-0.354,0-0.677,0.105-0.967,0.316s-0.506,0.506-0.65,0.887c-0.143,0.38-0.215,0.979-0.215,1.797v3.781h-2.133V19.045z"/>
		<path style="fill:#FFFFFF;" d="M135.419,19.045h2.133v8.5h-2.133v-0.898c-0.416,0.396-0.834,0.681-1.252,0.855
			c-0.419,0.174-0.873,0.262-1.362,0.262c-1.098,0-2.047-0.426-2.849-1.277c-0.801-0.852-1.201-1.91-1.201-3.176
			c0-1.313,0.388-2.389,1.163-3.227c0.774-0.839,1.716-1.258,2.824-1.258c0.51,0,0.988,0.096,1.436,0.289
			c0.448,0.192,0.861,0.481,1.241,0.867V19.045z M133.177,20.795c-0.659,0-1.207,0.232-1.643,0.699
			c-0.437,0.466-0.654,1.063-0.654,1.793c0,0.734,0.222,1.338,0.666,1.813c0.443,0.474,0.99,0.711,1.639,0.711
			c0.67,0,1.225-0.233,1.666-0.699c0.441-0.467,0.662-1.077,0.662-1.832c0-0.74-0.221-1.339-0.662-1.797
			C134.409,21.023,133.852,20.795,133.177,20.795z"/>
		<path style="fill:#FFFFFF;" d="M141.166,15.912h2.133v3.133h1.266v1.836h-1.266v6.664h-2.133v-6.664h-1.094v-1.836h1.094V15.912z"
			/>
		<path style="fill:#FFFFFF;" d="M147.736,15.545c0.374,0,0.694,0.135,0.962,0.406c0.268,0.271,0.401,0.599,0.401,0.984
			c0,0.38-0.133,0.704-0.397,0.973c-0.265,0.268-0.581,0.402-0.95,0.402c-0.379,0-0.702-0.137-0.97-0.41s-0.401-0.605-0.401-0.996
			c0-0.375,0.133-0.695,0.397-0.961S147.362,15.545,147.736,15.545z M146.67,19.045h2.133v8.5h-2.133V19.045z"/>
		<path style="fill:#FFFFFF;" d="M155.933,18.826c0.802,0,1.556,0.2,2.262,0.602c0.706,0.4,1.257,0.945,1.652,1.633
			s0.594,1.43,0.594,2.227c0,0.802-0.199,1.552-0.598,2.25c-0.398,0.697-0.941,1.243-1.629,1.637
			c-0.688,0.393-1.445,0.59-2.273,0.59c-1.219,0-2.259-0.434-3.121-1.301s-1.293-1.921-1.293-3.16c0-1.328,0.487-2.436,1.461-3.32
			C153.842,19.211,154.823,18.826,155.933,18.826z M155.968,20.834c-0.662,0-1.215,0.23-1.655,0.691s-0.661,1.051-0.661,1.77
			c0,0.739,0.218,1.338,0.653,1.797c0.436,0.458,0.987,0.688,1.655,0.688s1.224-0.232,1.667-0.695
			c0.443-0.464,0.665-1.061,0.665-1.789c0-0.729-0.218-1.322-0.653-1.777C157.203,21.062,156.646,20.834,155.968,20.834z"/>
		<path style="fill:#FFFFFF;" d="M163.383,19.045h2.133v0.871c0.483-0.408,0.922-0.691,1.314-0.852
			c0.393-0.159,0.795-0.238,1.205-0.238c0.843,0,1.558,0.294,2.146,0.883c0.494,0.5,0.741,1.239,0.741,2.219v5.617h-2.109v-3.723
			c0-1.015-0.046-1.688-0.137-2.021c-0.091-0.332-0.249-0.586-0.476-0.76c-0.226-0.176-0.505-0.262-0.837-0.262
			c-0.432,0-0.802,0.145-1.111,0.433c-0.309,0.288-0.523,0.688-0.643,1.198c-0.063,0.266-0.094,0.84-0.094,1.725v3.41h-2.133V19.045
			z"/>
		<path style="fill:#FFFFFF;" d="M187.301,23.029l1.303,1.492l-0.592,0.538l-0.585,0.53l1.845,1.955h-2.651l-0.759-0.781
			c-1.208,0.713-2.33,1.07-3.367,1.07c-0.88,0-1.593-0.258-2.137-0.773s-0.816-1.178-0.816-1.984c0-0.609,0.154-1.186,0.463-1.727
			c0.309-0.542,0.836-1.102,1.584-1.68c-0.739-0.995-1.109-1.875-1.109-2.641c0-0.568,0.245-1.128,0.734-1.68
			c0.489-0.553,1.18-0.828,2.07-0.828c0.901,0,1.593,0.273,2.074,0.82s0.723,1.099,0.723,1.656c0,0.438-0.11,0.856-0.332,1.258
			c-0.222,0.4-0.73,0.994-1.527,1.781c0.933,1.099,1.534,1.783,1.806,2.055C186.193,23.967,186.617,23.612,187.301,23.029z
			 M184.444,25.243c-0.402-0.396-0.969-1.05-1.7-1.964c-0.771,0.641-1.156,1.2-1.156,1.68c0,0.224,0.105,0.43,0.316,0.617
			c0.21,0.188,0.477,0.281,0.8,0.281C183.167,25.857,183.747,25.652,184.444,25.243z M183.143,20.498
			c0.578-0.495,0.867-0.933,0.867-1.313c0-0.198-0.065-0.359-0.195-0.484s-0.302-0.188-0.516-0.188c-0.198,0-0.366,0.07-0.504,0.211
			s-0.207,0.305-0.207,0.492C182.588,19.592,182.772,20.019,183.143,20.498z"/>
		<path style="fill:#FFFFFF;" d="M197.628,15.764h2.117v4.141c0.417-0.359,0.836-0.629,1.258-0.809s0.849-0.27,1.281-0.27
			c0.844,0,1.555,0.291,2.133,0.875c0.495,0.505,0.742,1.247,0.742,2.227v5.617h-2.102v-3.727c0-0.984-0.047-1.651-0.141-2
			c-0.094-0.35-0.254-0.609-0.48-0.781s-0.507-0.258-0.84-0.258c-0.433,0-0.804,0.143-1.113,0.43
			c-0.31,0.286-0.524,0.677-0.645,1.172c-0.063,0.255-0.094,0.838-0.094,1.75v3.414h-2.117V15.764z"/>
		<path style="fill:#FFFFFF;" d="M216.938,23.912h-6.852c0.099,0.604,0.363,1.084,0.793,1.441c0.43,0.356,0.978,0.535,1.645,0.535
			c0.797,0,1.481-0.279,2.055-0.836l1.797,0.844c-0.448,0.635-0.984,1.105-1.609,1.41s-1.367,0.457-2.227,0.457
			c-1.333,0-2.419-0.421-3.258-1.262c-0.839-0.842-1.258-1.895-1.258-3.16c0-1.297,0.418-2.374,1.254-3.23
			c0.836-0.857,1.884-1.285,3.145-1.285c1.339,0,2.427,0.428,3.266,1.285c0.839,0.856,1.258,1.988,1.258,3.395L216.938,23.912z
			 M214.805,22.232c-0.141-0.475-0.419-0.859-0.834-1.156c-0.414-0.297-0.896-0.445-1.443-0.445c-0.595,0-1.116,0.166-1.565,0.5
			c-0.281,0.208-0.542,0.575-0.782,1.102H214.805z"/>
		<path style="fill:#FFFFFF;" d="M219.63,15.764h2.133v11.781h-2.133V15.764z"/>
		<path style="fill:#FFFFFF;" d="M227.018,19.045v0.938c0.386-0.386,0.802-0.675,1.25-0.867c0.448-0.193,0.927-0.289,1.438-0.289
			c1.109,0,2.052,0.419,2.828,1.258c0.776,0.838,1.164,1.914,1.164,3.227c0,1.266-0.401,2.324-1.203,3.176s-1.753,1.277-2.852,1.277
			c-0.489,0-0.945-0.088-1.367-0.262c-0.422-0.175-0.841-0.46-1.258-0.855v4.008H224.9V19.045H227.018z M229.26,20.795
			c-0.672,0-1.229,0.229-1.672,0.688c-0.442,0.458-0.664,1.057-0.664,1.797c0,0.755,0.222,1.365,0.664,1.832
			c0.442,0.466,1,0.699,1.672,0.699c0.651,0,1.199-0.237,1.645-0.711c0.445-0.475,0.668-1.078,0.668-1.813
			c0-0.729-0.219-1.327-0.656-1.793C230.479,21.027,229.927,20.795,229.26,20.795z"/>
	</g>
</g>
</svg>
