<?xml version="1.0" encoding="iso-8859-1"?>
<!-- Generator: Adobe Illustrator 16.0.0, SVG Export Plug-In . SVG Version: 6.00 Build 0)  -->
<!DOCTYPE svg PUBLIC "-//W3C//DTD SVG 1.1//EN" "http://www.w3.org/Graphics/SVG/1.1/DTD/svg11.dtd">
<svg version="1.1" id="&#x5716;&#x5C64;_1" xmlns="http://www.w3.org/2000/svg" xmlns:xlink="http://www.w3.org/1999/xlink" x="0px"
	 y="0px" width="276.01px" height="435.592px" viewBox="0 0 276.01 435.592" style="enable-background:new 0 0 276.01 435.592;"
	 xml:space="preserve">
<g>
	<g>
		<g>
			<g>
				<path style="fill:#8A4424;" d="M82.916,275.037h-4.235c0-6.521-5.309-11.83-11.83-11.83c-6.523,0-11.833,5.309-11.833,11.83
					h-4.234c0-8.859,7.209-16.066,16.067-16.066C75.708,258.971,82.916,266.178,82.916,275.037z"/>
			</g>
			<path style="fill:#8A4424;" d="M134.077,333.805c0,6.904-5.647,12.551-12.552,12.551h-84.11c-6.903,0-12.552-5.646-12.552-12.551
				v-47.523c0-6.898,5.648-12.547,12.552-12.547h84.11c6.904,0,12.552,5.648,12.552,12.547V333.805z"/>
			<path style="fill:#945139;" d="M121.454,333.805c0,6.904-5.646,12.551-12.551,12.551H24.795c-6.906,0-12.552-5.646-12.552-12.551
				v-47.523c0-6.898,5.646-12.547,12.552-12.547h84.108c6.905,0,12.551,5.648,12.551,12.547V333.805z"/>
			<g>
				<defs>
					<path id="SVGID_1_" d="M121.454,333.805c0,6.904-5.646,12.551-12.551,12.551H24.795c-6.906,0-12.552-5.646-12.552-12.551
						v-47.523c0-6.898,5.646-12.547,12.552-12.547h84.108c6.905,0,12.551,5.648,12.551,12.547V333.805z"/>
				</defs>
				<clipPath id="SVGID_2_">
					<use xlink:href="#SVGID_1_"  style="overflow:visible;"/>
				</clipPath>
				<g style="clip-path:url(#SVGID_2_);">
					<g>
						<path style="fill:#B6725A;stroke:#7D4E22;stroke-miterlimit:10;" d="M32.466,277.307c0,8.666-7.024,15.689-15.688,15.689
							c-8.664,0-15.688-7.023-15.688-15.689c0-8.66,7.024-15.689,15.688-15.689C25.441,261.617,32.466,268.646,32.466,277.307z"/>
						<path style="fill:#B6725A;stroke:#7D4E22;stroke-miterlimit:10;" d="M132.084,277.307c0,8.666-7.025,15.689-15.688,15.689
							c-8.663,0-15.688-7.023-15.688-15.689c0-8.66,7.024-15.689,15.688-15.689C125.059,261.617,132.084,268.646,132.084,277.307z"
							/>
					</g>
					<g>
						<path style="fill:#B6725A;stroke:#7D4E22;stroke-miterlimit:10;" d="M32.466,343.777c0,8.664-7.024,15.689-15.688,15.689
							c-8.664,0-15.688-7.025-15.688-15.689c0-8.662,7.024-15.688,15.688-15.688C25.441,328.09,32.466,335.115,32.466,343.777z"/>
						<path style="fill:#B6725A;stroke:#7D4E22;stroke-miterlimit:10;" d="M132.084,343.777c0,8.664-7.025,15.689-15.688,15.689
							c-8.663,0-15.688-7.025-15.688-15.689c0-8.662,7.024-15.688,15.688-15.688C125.059,328.09,132.084,335.115,132.084,343.777z"
							/>
					</g>
				</g>
			</g>
			<rect x="43.625" y="299.902" style="fill:#B6725A;" width="47.282" height="14.641"/>
		</g>
		<g>
			<g>
				<g>
					<g>
						<g>
							<g>
								<path style="fill:#333E42;" d="M172.412,407.514l16.051,9.158l10.605,2.139c4.875,0.98,8.518,5.057,8.949,10.016
									l0.201,2.316l-58.85-0.09l1.646-23.516L172.412,407.514z"/>
								<path style="fill:#040000;" d="M149.137,431.438l59.311,0.09l0.006-3.754c0.002-0.738-0.598-1.344-1.34-1.344l-57.97-0.086
									L149.137,431.438"/>
							</g>
							<polygon style="fill:#EEBA9D;" points="151.016,407.537 150.746,381.766 172.365,381.564 172.412,407.514 							"/>
						</g>
						<path style="fill:#3F7AAE;" d="M180.907,193.77c6.422,44.391-2.937,202.912-2.937,202.912h-29.232l-2.204-158.691
							l-7.34-47.069C139.194,190.921,179.319,182.783,180.907,193.77z"/>
						<path style="fill:none;stroke:#8A4424;stroke-width:0.75;stroke-miterlimit:10;" d="M157.938,212.665v28.722
							c0,3.988-5.835,7.221-10.992,7.221l0,0"/>
						<rect x="145.903" y="382.355" style="fill:#4B88B6;" width="35.574" height="14.326"/>
						
							<line style="fill:none;stroke:#8A4424;stroke-width:0.75;stroke-miterlimit:10;" x1="178.793" y1="382.355" x2="148.536" y2="382.355"/>
					</g>
					<g>
						<g>
							<g>
								<path style="fill:#333E42;" d="M133.002,410.016l16.049,9.152l10.605,2.143c4.873,0.977,8.517,5.063,8.951,10.012
									l0.197,2.318l-58.985-0.09l1.784-23.52L133.002,410.016z"/>
								<path style="fill:#040000;" d="M109.589,433.932l59.446,0.092l0.005-3.9c0.004-0.66-0.532-1.189-1.188-1.193l-58.255-0.088
									L109.589,433.932"/>
							</g>
							<polygon style="fill:#EEBA9D;" points="111.604,410.031 111.566,384.264 132.952,384.059 133.002,410.016 							"/>
						</g>
						<path style="fill:#3F7AAE;" d="M152.505,196.498l-14.403,202.746l-32.129,0.689c0,0-3.114-149.41,5-194.07
							C112.877,195.393,152.505,196.498,152.505,196.498z"/>
						
							<line style="fill:none;stroke:#8A4424;stroke-width:0.75;stroke-miterlimit:10;" x1="182.508" y1="212.665" x2="110.319" y2="212.665"/>
						
							<line style="fill:none;stroke:#8A4424;stroke-width:0.75;stroke-miterlimit:10;" x1="147.606" y1="212.665" x2="146.284" y2="280.797"/>
						<rect x="103.685" y="385.607" style="fill:#4B88B6;" width="37.294" height="14.326"/>
						
							<line style="fill:none;stroke:#8A4424;stroke-width:0.75;stroke-miterlimit:10;" x1="139.07" y1="385.607" x2="105.388" y2="385.607"/>
						<path style="fill:none;stroke:#8A4424;stroke-width:0.75;stroke-miterlimit:10;" d="M122.334,212.665
							c0,0-8.649,25.056-4.948,172.942"/>
					</g>
				</g>
				<g>
					<g>
						<path style="fill:#1D1E1C;" d="M241.266,118.488l-13.968-10.161c-2.788-2.023-3.403-5.927-1.378-8.716l23.926-32.883
							c2.027-2.789,5.932-3.402,8.717-1.373l13.969,10.16c2.783,2.027,3.401,5.928,1.375,8.716l-23.924,32.884
							C247.951,119.904,244.051,120.517,241.266,118.488z"/>
						<g>
							<g>
								<path style="fill:#EBB699;" d="M262.3,104.752c3.991,6.319,2.1,14.677-4.22,18.663c-6.318,3.991-14.675,2.102-18.662-4.217
									c-3.99-6.318-2.1-14.678,4.219-18.664C249.957,96.545,258.314,98.434,262.3,104.752z"/>
							</g>
							<polyline style="fill:#EBB699;" points="226.482,139.048 243.36,116.292 256.574,123.979 240.588,148.546 							"/>
						</g>
						<path style="fill:#384C9A;" d="M168.839,85.09c0,0,12.011,9.902,31.737,50.552l8.025,20.851l22.818-32.205l24.585,13.585
							l-34.854,49.417c-6.815,9.672-21.056,9.958-28.26,0.575l-34.655-53.34L168.839,85.09z"/>
						
							<line style="fill:none;stroke:#294288;stroke-width:0.75;stroke-miterlimit:10;" x1="249.912" y1="146.512" x2="224.74" y2="133.71"/>
						
							<line style="fill:none;stroke:#294288;stroke-width:0.75;stroke-miterlimit:10;" x1="208.602" y1="156.493" x2="202.223" y2="167.734"/>
					</g>
					<g>
						<path style="fill:#F0EFEF;" d="M94.864,104.831c0,0,6.397-29.621,37.514-26.498c28.401,2.844,28.401,2.844,28.401,2.844
							s19.512,8.247,16.799,31.532c-2.714,23.281,0.877,43.088,1.571,47.2c0.693,4.107,3.764,44.198,0.569,44.714
							c-31.288,5.034-70.895-0.906-70.895-0.906L94.864,104.831z"/>
						<path style="fill:#384C9A;" d="M132.378,78.333c0,0,6.937,85.147-7.231,165.671c-1.316,7.479-30.282-2.445-30.282-2.445
							l3.118-145.487C97.982,96.071,107.312,74.856,132.378,78.333z"/>
						<path style="fill:#384C9A;" d="M154.816,80.423c0,0,11.07,10.358,13.546,42.123c2.106,27.014,7.849,95.278,8.88,117.321
							c0.174,3.701,3.557,6.412,7.206,5.773l11.792-2.061c0,0-8.869-87.028-9.66-102.301c-0.808-15.555-4.381-37.536-14.852-52.712
							C164.205,77.673,154.816,80.423,154.816,80.423z"/>
						<path style="fill:none;stroke:#294288;stroke-width:0.75;stroke-miterlimit:10;" d="M190.325,183.914
							c0,0-3.579-53.083-6.495-64.431"/>
					</g>
					<g>
						<g>
							<g>
								<circle style="fill:#EBB699;" cx="67.79" cy="256.142" r="13.529"/>
							</g>
							<polyline style="fill:#EBB699;" points="77.635,219.396 72.809,247.373 58.018,246.742 60.73,217.564 							"/>
						</g>
						<path style="fill:#384C9A;" d="M105.947,86.307c0,0-49.823,41.688-54.549,150.302l35.323-1.793
							c0,0,4.665-73.851,34.059-109.425C120.78,125.391,126.801,101.521,105.947,86.307z"/>
						
							<line style="fill:none;stroke:#294288;stroke-width:0.75;stroke-miterlimit:10;" x1="87.811" y1="223.557" x2="52.048" y2="225.636"/>
						<path style="fill:none;stroke:#294288;stroke-width:0.75;stroke-miterlimit:10;" d="M96.141,179.118
							c0,0,2.98-19.44,21.37-49.473"/>
					</g>
				</g>
				<g>
					<g>
						<g>
							<path style="fill:#EBB699;" d="M133.25,76.838l-0.753-32.547l22.987,6.604l-0.242,26.147
								c-0.055,6.072-3.119,10.959-9.195,10.902l-1.901-0.01C138.073,87.882,133.196,82.91,133.25,76.838z"/>
						</g>
						<path style="fill:#D68E7D;" d="M133.549,49.196c0,0-1.548,28.98,21.65,29.167l0.327-15.028L133.549,49.196z"/>
					</g>
					<g>
						<path style="fill:#D68E7D;" d="M180.477,42.671c0.052,3.901-3.076,7.103-6.977,7.152c-3.9,0.048-7.104-3.075-7.151-6.976
							c-0.052-3.898,3.075-7.103,6.974-7.155C177.224,35.644,180.427,38.769,180.477,42.671z"/>
						<path style="fill:#EBB699;" d="M155.148,70.126l-0.783,0.012c-11.565,0.145-21.062-9.117-21.204-20.683l-0.294-23.651
							c-0.039-2.994,2.358-5.452,5.353-5.487l27.567-0.344c5.349-0.067,9.74,4.214,9.805,9.563l0.24,19.39
							C175.978,60.489,166.716,69.983,155.148,70.126z"/>
						<path style="fill:#161E21;" d="M134.362,41.011l4.768-14.12c0,0,33.706,5.658,41.782-4.092
							c7.754-9.368-1.645-20.906-8.439-22.171c-5.31-0.989-8.351,1.969-12.33,4.282c-3.979,2.31-13.435-1.794-16.347-1.88
							c-2.91-0.086-18.635-1.712-18.489,13.132c0,0-26.294,13.695,7.649,45.522C132.956,61.684,137.643,52.601,134.362,41.011z"/>
						<path style="fill:#EBB699;" d="M137.958,42.06c0.047,3.9-3.076,7.102-6.977,7.15c-3.902,0.048-7.104-3.074-7.152-6.977
							c-0.052-3.904,3.075-7.105,6.976-7.155C134.706,35.03,137.908,38.155,137.958,42.06z"/>
						<path style="fill:#161E21;" d="M134.136,27.705l-0.016-5.836l6.104,1.135l0.009,1.534l2.319,0.185
							c0,0,1.274,6.422-2.253,9.341l0.107,15.349c0.015,2.391,1.135,4.73,3.18,5.97c1.301,0.793,2.33,1.875,4.536,1.416
							c6.21-1.291,3.047-5.763,15.797-5.822c11.678-0.048,11.164,6.46,11.164,6.46s-1.525,12.436-17.455,13.972
							c-15.933,1.542-24.468-8.093-23.437-21.655l-0.037-14.56C131.398,34.185,132.64,30.533,134.136,27.705z"/>
						<g>
							<path style="fill:#161E21;" d="M157.19,40.219c-0.062,0.941-0.875,1.656-1.817,1.593c-0.94-0.057-1.652-0.875-1.594-1.811
								c0.063-0.941,0.874-1.656,1.814-1.599C156.537,38.465,157.252,39.277,157.19,40.219z"/>
							<path style="fill:#161E21;" d="M171.8,39.992c-0.061,0.942-0.874,1.658-1.815,1.595c-0.944-0.059-1.657-0.875-1.596-1.813
								c0.061-0.943,0.873-1.656,1.817-1.599C171.146,38.237,171.859,39.048,171.8,39.992z"/>
							
								<path style="fill:none;stroke:#D68E7D;stroke-width:0.5509;stroke-linecap:round;stroke-linejoin:round;stroke-miterlimit:10;" d="
								M165.076,40.407l0.504,7.088c0,0-0.271,2.589-3.959,1.617"/>
							<path style="fill:#161E21;" d="M150.85,35.145c0.105,0.02,0.209,0.024,0.32,0.02l7.729-0.381
								c0.86-0.043,1.524-0.773,1.486-1.64c-0.041-0.861-0.771-1.525-1.643-1.484l-7.729,0.379c-0.864,0.043-1.527,0.777-1.484,1.64
								C149.563,34.436,150.133,35.034,150.85,35.145z"/>
							<path style="fill:#161E21;" d="M168.449,34.609c0.104,0.015,0.209,0.02,0.314,0.015l4.729-0.231
								c0.866-0.04,1.527-0.774,1.484-1.637c-0.04-0.867-0.778-1.53-1.638-1.489l-4.727,0.232c-0.863,0.043-1.529,0.779-1.486,1.64
								C167.163,33.896,167.73,34.499,168.449,34.609z"/>
							
								<path style="fill:none;stroke:#D68E7D;stroke-width:2;stroke-linecap:round;stroke-linejoin:round;stroke-miterlimit:10;" d="
								M167.127,56.822c0,0-3.523,2.213-8.889,0"/>
						</g>
					</g>
				</g>
			</g>
		</g>
	</g>
	<path style="fill:none;stroke:#FFFFFF;stroke-width:2;stroke-linecap:round;stroke-linejoin:round;stroke-miterlimit:10;" d="
		M272.441,76.082l-13.969-10.16c-2.785-2.029-6.689-1.416-8.717,1.373l-23.926,32.883c-2.025,2.79-1.41,6.693,1.378,8.716
		l10.69,7.777c0.342,1.064,0.806,2.105,1.43,3.094c0.271,0.431,0.567,0.836,0.878,1.226l-4.613,6.22l-4.263-2.355l-22.818,32.205
		l-8.025-20.851c-19.388-39.952-31.314-50.196-31.718-50.536c-6.523-6.475-13.366-4.862-13.99-4.697
		c0.146-0.657,0.248-1.342,0.308-2.047c0.008,0,0.016,0.001,0.023,0.001l0.013-0.563c0.013-0.252,0.028-0.502,0.03-0.758
		l0.011-1.137l0.095-4.358c0.744-0.023,1.501-0.063,2.281-0.139c15.93-1.536,17.455-13.972,17.455-13.972s0.057-0.739-0.312-1.715
		c0.656-1.996,1.021-4.118,1.042-6.325c2.749-0.995,4.703-3.638,4.662-6.726c-0.039-3.078-2.045-5.666-4.804-6.601l-0.081-6.535
		c-0.013-1.077-0.209-2.107-0.545-3.071c2.476-0.865,4.527-2.05,5.865-3.666c7.754-9.368-1.645-20.906-8.439-22.171
		c-5.31-0.989-8.351,1.969-12.33,4.282c-3.979,2.31-13.435-1.794-16.347-1.88c-2.91-0.086-18.635-1.712-18.489,13.132
		c0,0-26.262,13.68,7.592,45.467l0.352,15.21c-0.005,0.542,0.043,1.071,0.114,1.593c-0.331-0.033-0.647-0.064-0.986-0.099
		c-17.482-2.425-27.303,7.157-31.648,13.179c-12.903,14.142-45.55,58.195-49.331,145.098l7.597-0.387l-0.978,10.52l0.058,0.002
		c-0.754,0.781-1.436,1.65-2.002,2.633c-2.538,4.395-2.323,9.617,0.1,13.688c-2.993,2.674-4.981,6.438-5.323,10.67H37.325h-5.374
		c-1.619-6.939-7.831-12.117-15.263-12.117C8.024,262.186,1,269.215,1,277.875c0,7.088,4.701,13.07,11.153,15.018v36.438
		C5.701,331.275,1,337.26,1,344.346c0,8.664,7.024,15.689,15.688,15.689c7.783,0,14.226-5.678,15.458-13.111h5.179h63.523
		c0.557,3.359,2.168,6.359,4.5,8.637c0.066,12.201,0.188,22.789,0.297,30.615h-0.348h-1.703v14.326h7.904l0.015,10.098
		l-1.427,18.811h-0.579l-0.009,5.09l59.446,0.092l0.003-2.557l39.409,0.061l0.006-3.754c0.001-0.58-0.373-1.066-0.892-1.254
		c-1.184-3.877-4.4-6.887-8.493-7.709l-10.605-2.139l-16.051-9.158l-0.02-10.832h5.578h3.507v-14.326h-2.685h-0.032
		c1.45-27.459,4.392-89.006,4.397-136.629c0.423,0.016,0.854-0.01,1.29-0.086l11.792-2.061c0,0-3.19-31.309-5.915-59.666
		l2.566,3.951c7.204,9.382,21.444,9.097,28.26-0.575l34.854-49.417l-6.231-3.443l6.577-10.108c0.588-0.263,1.169-0.554,1.729-0.908
		c6.319-3.985,8.211-12.344,4.22-18.663c-0.508-0.806-1.089-1.537-1.726-2.195l13.332-18.326
		C275.843,82.01,275.225,78.109,272.441,76.082z M154.765,81.029c0.028,0.027,0.076,0.076,0.134,0.136
		c-0.056-0.005-0.106-0.011-0.164-0.016C154.744,81.108,154.756,81.069,154.765,81.029z M86.632,235.385
		c0,0,1.689-26.697,9.422-55.718c0,0.004-0.003,0.019-0.003,0.019l0.065-0.151l-1.342,62.592c0,0,5.828,1.994,12.373,3.521
		c-0.337,6.408-0.617,13.17-0.849,20.148c-2.59,2.148-4.465,5.119-5.255,8.506H82.76c-0.296-3.67-1.831-6.986-4.186-9.549
		c0.3-0.406,0.586-0.83,0.845-1.277c3.734-6.471,1.52-14.744-4.953-18.482c-0.373-0.217-0.754-0.406-1.139-0.584l1.454-8.424
		L86.632,235.385z M58.791,266.887c0.652,0.57,1.365,1.09,2.144,1.539c4.737,2.736,10.435,2.27,14.617-0.709
		c1.608,1.791,2.686,4.068,2.963,6.586H55.004C55.326,271.377,56.726,268.775,58.791,266.887z M150.926,408.105l-0.83,11.859
		l-1.135-0.229l-16.049-9.152l-0.02-10.082h7.996v-14.326h-1.908l7.958-112.023l1.511,108.771h-0.003h-2.633v14.326h2.835h2.164
		L150.926,408.105z"/>
</g>
</svg>
