<?xml version="1.0" encoding="iso-8859-1"?>
<!-- Generator: Adobe Illustrator 16.0.0, SVG Export Plug-In . SVG Version: 6.00 Build 0)  -->
<!DOCTYPE svg PUBLIC "-//W3C//DTD SVG 1.1//EN" "http://www.w3.org/Graphics/SVG/1.1/DTD/svg11.dtd">
<svg version="1.1" id="&#x5716;&#x5C64;_1" xmlns="http://www.w3.org/2000/svg" xmlns:xlink="http://www.w3.org/1999/xlink" x="0px"
	 y="0px" width="32.49px" height="13.029px" viewBox="0 0 32.49 13.029" style="enable-background:new 0 0 32.49 13.029;"
	 xml:space="preserve">
<g>
	<path style="fill:#9FA0A0;" d="M0,0.252h1.941v3.795h3.356V0.252h1.935v10.057H5.298v-4.41H1.941v4.41H0V0.252z"/>
	<path style="fill:#9FA0A0;" d="M17.825,7.129H11.83c0.087,0.529,0.317,0.949,0.694,1.262c0.375,0.313,0.855,0.469,1.438,0.469
		c0.697,0,1.297-0.244,1.798-0.732l1.572,0.738c-0.392,0.557-0.861,0.968-1.408,1.234s-1.196,0.4-1.948,0.4
		c-1.167,0-2.117-0.369-2.851-1.104s-1.101-1.657-1.101-2.765c0-1.135,0.366-2.078,1.097-2.827c0.732-0.749,1.649-1.124,2.752-1.124
		c1.171,0,2.124,0.375,2.857,1.124s1.101,1.739,1.101,2.97L17.825,7.129z M15.959,5.66c-0.123-0.415-0.366-0.752-0.729-1.012
		c-0.362-0.26-0.784-0.391-1.264-0.391c-0.52,0-0.977,0.146-1.369,0.438c-0.246,0.183-0.475,0.504-0.685,0.965H15.959z"/>
	<path style="fill:#9FA0A0;" d="M20.181,0h1.866v10.309h-1.866V0z"/>
	<path style="fill:#9FA0A0;" d="M26.646,2.871v0.82c0.337-0.338,0.702-0.591,1.094-0.76c0.392-0.168,0.812-0.252,1.258-0.252
		c0.971,0,1.796,0.366,2.475,1.1c0.679,0.734,1.019,1.676,1.019,2.824c0,1.107-0.351,2.033-1.053,2.778S29.904,10.5,28.942,10.5
		c-0.429,0-0.827-0.076-1.196-0.229s-0.736-0.402-1.101-0.749v3.508h-1.853V2.871H26.646z M28.607,4.402
		c-0.588,0-1.075,0.2-1.463,0.602c-0.388,0.4-0.581,0.925-0.581,1.572c0,0.66,0.193,1.195,0.581,1.603s0.875,0.612,1.463,0.612
		c0.569,0,1.049-0.208,1.439-0.623c0.389-0.414,0.584-0.943,0.584-1.586c0-0.638-0.191-1.16-0.574-1.568S29.19,4.402,28.607,4.402z"
		/>
</g>
</svg>
