<?xml version="1.0" encoding="iso-8859-1"?>
<!-- Generator: Adobe Illustrator 16.0.0, SVG Export Plug-In . SVG Version: 6.00 Build 0)  -->
<!DOCTYPE svg PUBLIC "-//W3C//DTD SVG 1.1//EN" "http://www.w3.org/Graphics/SVG/1.1/DTD/svg11.dtd">
<svg version="1.1" id="&#x5716;&#x5C64;_1" xmlns="http://www.w3.org/2000/svg" xmlns:xlink="http://www.w3.org/1999/xlink" x="0px"
	 y="0px" width="73.51px" height="73.513px" viewBox="0 0 73.51 73.513" style="enable-background:new 0 0 73.51 73.513;"
	 xml:space="preserve">
<g>
	<path style="fill:#2D72A8;" d="M65.234,0c4.567,0,8.275,3.706,8.275,8.278v56.958c0,4.572-3.708,8.278-8.275,8.278H8.275
		C3.704,73.513,0,69.807,0,65.235V8.278C0,3.706,3.704,0,8.275,0H65.234z"/>
	<g>
		<g>
			<g>
				<polygon style="fill:#FFFFFF;" points="54.638,45.058 59.703,45.058 35.997,26.541 31.013,26.541 				"/>
				<polygon style="fill:#FFFFFF;" points="54.892,45.061 59.956,45.061 36.248,26.546 31.264,26.546 				"/>
				<polygon style="fill:#FFFFFF;" points="63.175,45.058 68.237,45.058 44.533,26.541 39.54,26.541 				"/>
				<polygon style="opacity:0.8;fill:#FFFFFF;" points="12.048,45.058 7.341,45.066 31.013,26.541 33.349,28.378 				"/>
				<polygon style="opacity:0.8;fill:#FFFFFF;" points="20.582,45.058 15.868,45.066 35.274,29.887 37.616,31.721 				"/>
			</g>
		</g>
		<g>
			<g>
				<polygon style="fill:#FFFFFF;" points="45.306,65.324 47.639,65.324 36.707,56.79 34.41,56.79 				"/>
				<polygon style="fill:#FFFFFF;" points="45.419,65.327 47.75,65.327 36.826,56.793 34.526,56.793 				"/>
				<polygon style="fill:#FFFFFF;" points="49.239,65.324 51.567,65.324 40.646,56.79 38.346,56.79 				"/>
				<polygon style="opacity:0.8;fill:#FFFFFF;" points="25.673,65.324 23.503,65.327 34.41,56.79 35.492,57.636 				"/>
				<polygon style="opacity:0.8;fill:#FFFFFF;" points="29.606,65.324 27.435,65.327 36.378,58.334 37.458,59.18 				"/>
			</g>
		</g>
		<rect x="34.693" y="11.141" style="fill:#FFFFFF;" width="5.847" height="48.653"/>
	</g>
	<g>
		<path style="fill:#FFFFFF;" d="M61.671,19c0.352,0.225,1.165,0.575,2.021,0.575c1.585,0,2.078-1.01,2.063-1.768
			c-0.014-1.277-1.165-1.825-2.357-1.825h-0.688v-0.926h0.688c0.898,0,2.034-0.462,2.034-1.543c0-0.73-0.463-1.376-1.599-1.376
			c-0.73,0-1.433,0.323-1.826,0.604l-0.322-0.898c0.478-0.351,1.404-0.702,2.387-0.702c1.797,0,2.609,1.066,2.609,2.175
			c0,0.94-0.561,1.741-1.683,2.148v0.027c1.122,0.225,2.034,1.067,2.034,2.344c0,1.46-1.137,2.736-3.326,2.736
			c-1.024,0-1.922-0.322-2.371-0.618L61.671,19z"/>
	</g>
</g>
</svg>
