<?xml version="1.0" encoding="iso-8859-1"?>
<!-- Generator: Adobe Illustrator 16.0.0, SVG Export Plug-In . SVG Version: 6.00 Build 0)  -->
<!DOCTYPE svg PUBLIC "-//W3C//DTD SVG 1.1//EN" "http://www.w3.org/Graphics/SVG/1.1/DTD/svg11.dtd">
<svg version="1.1" id="&#x5716;&#x5C64;_1" xmlns="http://www.w3.org/2000/svg" xmlns:xlink="http://www.w3.org/1999/xlink" x="0px"
	 y="0px" width="73.66px" height="73.66px" viewBox="0 0 73.66 73.66" style="enable-background:new 0 0 73.66 73.66;"
	 xml:space="preserve">
<g>
	<path style="fill:#2D72A8;" d="M73.66,65.368c0,4.581-3.712,8.292-8.288,8.292H8.294C3.712,73.66,0,69.949,0,65.368V8.296
		C0,3.715,3.712,0,8.294,0h57.078c4.576,0,8.288,3.715,8.288,8.296V65.368z"/>
	<g>
		<rect x="16.341" y="21.612" style="fill:#FFFFFF;" width="3.37" height="40.822"/>
		<g>
			<rect x="20.124" y="57.012" style="fill:#FFFFFF;" width="42.314" height="5.423"/>
			<rect x="16.341" y="57.012" style="fill:#FFFFFF;" width="3.783" height="5.423"/>
		</g>
	</g>
	<g>
		<path style="fill:#FFFFFF;" d="M54.397,32.75H47.19c0.019-0.11,0.041-0.235,0.041-0.353c0-1.37-1.115-2.486-2.481-2.486h-6.934
			c-1.37,0-2.481,1.116-2.481,2.486c0,0.118,0.018,0.243,0.037,0.353H28.17c-1.571,0-2.835,1.271-2.835,2.835v16.462
			c0,1.567,1.264,2.838,2.835,2.838h26.228c1.566,0,2.834-1.271,2.834-2.838V35.585C57.231,34.022,55.964,32.75,54.397,32.75z"/>
		<path style="fill:#2D72A8;" d="M44.8,32.762c0,0.361-0.289,0.653-0.646,0.653h-5.741c-0.361,0-0.653-0.292-0.653-0.653l0,0
			c0-0.36,0.292-0.645,0.653-0.645h5.741C44.511,32.117,44.8,32.401,44.8,32.762L44.8,32.762z"/>
	</g>
	<path style="fill:none;stroke:#FFFFFF;stroke-miterlimit:10;" d="M29.031,16.675c0,2.299-1.865,4.163-4.163,4.163H12.175
		c-2.293,0-4.16-1.863-4.16-4.163v-0.626c0-2.292,1.867-4.159,4.16-4.159h12.693c2.298,0,4.163,1.867,4.163,4.159V16.675z"/>
	<g>
		<path style="fill:#FFFFFF;" d="M12.58,14.091c0.004-0.061,0.03-0.114,0.079-0.156c0.047-0.045,0.1-0.068,0.164-0.068h1.926
			c0.074,0,0.123,0.023,0.171,0.072c0.053,0.045,0.073,0.103,0.073,0.167c0,0.068-0.021,0.125-0.073,0.174
			c-0.048,0.046-0.097,0.068-0.171,0.068h-1.721l-0.205,1.245c0.238-0.114,0.484-0.17,0.748-0.17c0.234,0,0.457,0.045,0.666,0.133
			c0.21,0.095,0.393,0.216,0.546,0.375c0.155,0.156,0.274,0.338,0.366,0.546c0.095,0.209,0.145,0.429,0.145,0.664
			c0,0.232-0.05,0.456-0.145,0.661c-0.092,0.212-0.211,0.395-0.366,0.55c-0.153,0.155-0.336,0.277-0.546,0.372
			c-0.209,0.087-0.432,0.133-0.666,0.133c-0.332,0-0.635-0.083-0.896-0.25c-0.277-0.171-0.485-0.391-0.633-0.668
			c-0.039-0.061-0.058-0.122-0.058-0.198c0-0.053,0.019-0.106,0.058-0.151c0.033-0.042,0.088-0.065,0.162-0.065
			c0.061,0,0.114,0.019,0.16,0.061c0.049,0.042,0.091,0.091,0.117,0.148c0.11,0.193,0.262,0.349,0.447,0.471
			c0.194,0.11,0.41,0.174,0.643,0.174c0.174,0,0.334-0.038,0.483-0.103c0.144-0.064,0.278-0.155,0.389-0.266
			c0.11-0.114,0.201-0.239,0.266-0.387c0.066-0.151,0.103-0.311,0.103-0.482c0-0.174-0.036-0.333-0.103-0.482
			c-0.064-0.148-0.155-0.281-0.266-0.391c-0.11-0.11-0.245-0.201-0.389-0.266c-0.149-0.068-0.31-0.099-0.483-0.099
			c-0.064,0-0.145,0.004-0.225,0.015c-0.086,0.011-0.167,0.026-0.242,0.057c-0.076,0.023-0.152,0.061-0.219,0.099
			c-0.07,0.042-0.119,0.095-0.165,0.155c-0.042,0.061-0.079,0.11-0.114,0.145c-0.045,0.034-0.093,0.053-0.151,0.053
			c-0.068,0-0.118-0.022-0.153-0.068c-0.048-0.049-0.066-0.099-0.066-0.159v-0.015c0,0,0.011-0.015,0.011-0.027L12.58,14.091z"/>
		<path style="fill:#FFFFFF;" d="M16.341,14.106c0-0.064,0.023-0.122,0.068-0.167c0.045-0.049,0.099-0.072,0.167-0.072
			c0.076,0,0.129,0.023,0.175,0.072c0.049,0.045,0.072,0.103,0.072,0.167v2.072l2.447-2.239c0.046-0.049,0.103-0.072,0.167-0.072
			c0.068,0,0.126,0.023,0.179,0.072c0.041,0.045,0.068,0.103,0.068,0.167c0,0.068-0.027,0.125-0.068,0.174l-1.686,1.541l1.689,2.671
			c0.026,0.038,0.037,0.087,0.037,0.129c0,0.053-0.022,0.106-0.068,0.159c-0.043,0.049-0.102,0.076-0.174,0.076
			c-0.088,0-0.152-0.038-0.203-0.114l-1.634-2.596l-0.755,0.683v1.792c0,0.061-0.023,0.121-0.072,0.167
			c-0.046,0.042-0.099,0.068-0.175,0.068c-0.068,0-0.122-0.026-0.167-0.068c-0.045-0.046-0.068-0.106-0.068-0.167V14.106z"/>
		<path style="fill:#FFFFFF;" d="M23.407,17.062c-0.068,0-0.127-0.022-0.173-0.068c-0.044-0.049-0.066-0.11-0.066-0.174
			s0.022-0.122,0.066-0.171c0.046-0.045,0.104-0.068,0.173-0.068h1.416c0.072,0,0.129,0.023,0.174,0.076
			c0.038,0.045,0.061,0.106,0.061,0.17l-0.004,0.031l-0.008,0.019c-0.053,0.296-0.154,0.554-0.307,0.801
			c-0.145,0.239-0.332,0.448-0.543,0.623c-0.22,0.174-0.463,0.315-0.732,0.41c-0.27,0.099-0.556,0.148-0.854,0.148
			c-0.342,0-0.668-0.061-0.964-0.193c-0.304-0.133-0.569-0.308-0.792-0.535c-0.229-0.22-0.402-0.482-0.531-0.782
			c-0.131-0.304-0.199-0.626-0.199-0.971c0-0.346,0.068-0.668,0.199-0.968c0.129-0.304,0.303-0.569,0.531-0.793
			c0.223-0.231,0.488-0.41,0.792-0.539c0.296-0.129,0.622-0.194,0.964-0.194c0.418,0,0.801,0.095,1.153,0.281
			c0.353,0.186,0.64,0.44,0.866,0.751c0.037,0.053,0.053,0.11,0.053,0.16c0,0.057-0.02,0.106-0.057,0.155
			c-0.05,0.053-0.104,0.076-0.18,0.076c-0.031,0-0.073-0.008-0.113-0.023c-0.041-0.019-0.072-0.049-0.105-0.083
			c-0.251-0.292-0.51-0.508-0.786-0.638c-0.273-0.129-0.556-0.193-0.831-0.193c-0.273,0-0.535,0.045-0.781,0.152
			c-0.247,0.106-0.456,0.25-0.633,0.437c-0.184,0.182-0.322,0.391-0.434,0.637c-0.098,0.247-0.148,0.505-0.148,0.782
			c0,0.277,0.051,0.539,0.148,0.778c0.111,0.247,0.25,0.463,0.434,0.637c0.177,0.179,0.386,0.323,0.633,0.433
			c0.246,0.103,0.508,0.156,0.781,0.156c0.221,0,0.429-0.038,0.619-0.103c0.197-0.064,0.377-0.155,0.542-0.269
			c0.167-0.114,0.308-0.25,0.429-0.414c0.121-0.163,0.225-0.337,0.3-0.531H23.407z"/>
	</g>
</g>
</svg>
