<?xml version="1.0" encoding="iso-8859-1"?>
<!-- Generator: Adobe Illustrator 16.0.0, SVG Export Plug-In . SVG Version: 6.00 Build 0)  -->
<!DOCTYPE svg PUBLIC "-//W3C//DTD SVG 1.1//EN" "http://www.w3.org/Graphics/SVG/1.1/DTD/svg11.dtd">
<svg version="1.1" id="&#x5716;&#x5C64;_1" xmlns="http://www.w3.org/2000/svg" xmlns:xlink="http://www.w3.org/1999/xlink" x="0px"
	 y="0px" width="73.512px" height="73.51px" viewBox="0 0 73.512 73.51" style="enable-background:new 0 0 73.512 73.51;"
	 xml:space="preserve">
<g>
	<path style="fill:#2D72A8;" d="M73.512,65.234c0,4.57-3.706,8.275-8.278,8.275H8.274C3.704,73.51,0,69.805,0,65.234V8.275
		C0,3.707,3.704,0,8.274,0h56.959c4.572,0,8.278,3.707,8.278,8.275V65.234z"/>
	<g>
		<g>
			<polygon style="fill:#FFFFFF;" points="46.548,56.166 25.829,59.342 23.917,57.17 44.345,53.066 			"/>
			
				<rect x="25.786" y="50.155" transform="matrix(0.7338 0.6793 -0.6793 0.7338 43.8063 -8.0749)" style="fill:#FFFFFF;" width="12.843" height="3.423"/>
			<polygon style="fill:#FFFFFF;" points="25.829,59.342 21.927,55.738 23.889,53.621 27.785,57.225 			"/>
		</g>
		<g>
			<path style="fill:none;stroke:#FFFFFF;stroke-width:3;stroke-miterlimit:10;" d="M54.717,54.387
				c0,8.027-7.106,14.525-15.872,14.525h-2.926c-8.766,0-15.873-6.498-15.873-14.525V23.336c0-8.023,7.107-14.527,15.873-14.527
				h2.926c8.766,0,15.872,6.504,15.872,14.527V54.387z"/>
			<rect x="20.157" y="19.863" style="fill:#FFFFFF;" width="34.56" height="15.855"/>
			<g>
				<path style="opacity:0.8;fill:#2D72A8;" d="M33.462,23.869c0.027-0.066,0.076-0.135,0.143-0.199c0.074-0.07,0.152-0.1,0.244-0.1
					c0.082,0,0.161,0.029,0.238,0.094c0.064,0.059,0.117,0.133,0.153,0.205l3.262,7.568c0.019,0.035,0.031,0.09,0.031,0.16
					c0,0.104-0.039,0.197-0.109,0.277c-0.07,0.078-0.167,0.117-0.29,0.117c-0.186,0-0.313-0.084-0.385-0.25l-1.055-2.416h-3.707
					l-1.063,2.416c-0.033,0.078-0.086,0.145-0.155,0.186c-0.07,0.045-0.144,0.064-0.225,0.064c-0.125,0-0.224-0.039-0.298-0.117
					c-0.074-0.08-0.111-0.174-0.111-0.277c0-0.051,0.012-0.104,0.037-0.16L33.462,23.869z M33.849,25.1l-1.509,3.408h2.999
					L33.849,25.1z"/>
				<path style="opacity:0.8;fill:#2D72A8;" d="M40.153,23.955c0.013-0.111,0.061-0.199,0.136-0.273
					c0.077-0.074,0.174-0.111,0.276-0.111h3.262c0.113,0,0.211,0.037,0.29,0.117s0.12,0.174,0.12,0.291
					c0,0.115-0.041,0.211-0.12,0.291c-0.079,0.078-0.177,0.117-0.29,0.117h-2.918l-0.344,2.102c0.408-0.197,0.827-0.293,1.268-0.293
					c0.396,0,0.772,0.076,1.123,0.232c0.352,0.154,0.66,0.363,0.923,0.631c0.266,0.262,0.477,0.57,0.626,0.922
					c0.156,0.352,0.235,0.723,0.235,1.119s-0.079,0.771-0.235,1.123c-0.149,0.352-0.36,0.66-0.626,0.924
					c-0.263,0.266-0.571,0.473-0.923,0.633c-0.351,0.148-0.727,0.225-1.123,0.225c-0.561,0-1.068-0.143-1.525-0.428
					c-0.454-0.285-0.808-0.664-1.063-1.131c-0.06-0.094-0.091-0.203-0.091-0.326c0-0.1,0.031-0.186,0.091-0.256
					c0.063-0.078,0.156-0.113,0.278-0.113c0.094,0,0.188,0.031,0.271,0.105c0.085,0.066,0.154,0.152,0.202,0.25
					c0.179,0.322,0.431,0.588,0.751,0.785c0.33,0.199,0.693,0.295,1.086,0.295c0.289,0,0.562-0.055,0.811-0.162
					c0.252-0.111,0.474-0.26,0.66-0.449c0.19-0.191,0.342-0.41,0.449-0.662c0.112-0.25,0.167-0.52,0.167-0.813
					c0-0.289-0.055-0.559-0.167-0.809c-0.107-0.25-0.259-0.471-0.449-0.662c-0.187-0.189-0.408-0.338-0.66-0.451
					c-0.249-0.109-0.521-0.16-0.811-0.16c-0.116,0-0.24,0.008-0.382,0.021c-0.143,0.02-0.278,0.049-0.41,0.096
					c-0.132,0.043-0.253,0.102-0.369,0.17c-0.113,0.072-0.204,0.16-0.278,0.264c-0.068,0.1-0.137,0.176-0.199,0.242
					c-0.062,0.059-0.146,0.09-0.246,0.09c-0.11,0-0.196-0.041-0.268-0.119c-0.069-0.08-0.107-0.168-0.107-0.264
					c0-0.016,0.006-0.031,0.011-0.041c0,0,0.007-0.021,0.007-0.037L40.153,23.955z"/>
			</g>
		</g>
	</g>
	<path style="fill:#FFFFFF;" d="M40.282,13.834c0,0.557-0.729,1.01-1.632,1.01h-2.429c-0.899,0-1.629-0.453-1.629-1.01l0,0
		c0-0.555,0.729-1.008,1.629-1.008h2.429C39.554,12.826,40.282,13.279,40.282,13.834L40.282,13.834z"/>
</g>
</svg>
