<?xml version="1.0" encoding="iso-8859-1"?>
<!-- Generator: Adobe Illustrator 16.0.0, SVG Export Plug-In . SVG Version: 6.00 Build 0)  -->
<!DOCTYPE svg PUBLIC "-//W3C//DTD SVG 1.1//EN" "http://www.w3.org/Graphics/SVG/1.1/DTD/svg11.dtd">
<svg version="1.1" id="&#x5716;&#x5C64;_1" xmlns="http://www.w3.org/2000/svg" xmlns:xlink="http://www.w3.org/1999/xlink" x="0px"
	 y="0px" width="73.51px" height="73.514px" viewBox="0 0 73.51 73.514" style="enable-background:new 0 0 73.51 73.514;"
	 xml:space="preserve">
<g>
	<path style="fill:#2D72A8;" d="M73.51,65.238c0,4.571-3.703,8.275-8.273,8.275H8.276C3.706,73.514,0,69.809,0,65.238V8.28
		C0,3.707,3.706,0,8.276,0h56.96c4.57,0,8.273,3.707,8.273,8.28V65.238z"/>
	<rect y="62.848" style="fill:#FFFFFF;" width="27.548" height="2.757"/>
	<g>
		<polygon style="fill:#FFFFFF;" points="67.163,21.147 33.02,39.112 28.387,36.476 61.474,17.072 		"/>
		
			<rect x="27.816" y="19.116" transform="matrix(0.9153 0.4028 -0.4028 0.9153 12.3275 -14.0792)" style="fill:#FFFFFF;" width="23.64" height="6.304"/>
		
			<rect x="24.729" y="32.058" transform="matrix(0.9153 0.4028 -0.4028 0.9153 16.4931 -8.9893)" style="fill:#FFFFFF;" width="9.774" height="5.31"/>
	</g>
</g>
</svg>
