<?xml version="1.0" encoding="iso-8859-1"?>
<!-- Generator: Adobe Illustrator 16.0.0, SVG Export Plug-In . SVG Version: 6.00 Build 0)  -->
<!DOCTYPE svg PUBLIC "-//W3C//DTD SVG 1.1//EN" "http://www.w3.org/Graphics/SVG/1.1/DTD/svg11.dtd">
<svg version="1.1" id="&#x5716;&#x5C64;_1" xmlns="http://www.w3.org/2000/svg" xmlns:xlink="http://www.w3.org/1999/xlink" x="0px"
	 y="0px" width="73.66px" height="73.664px" viewBox="0 0 73.66 73.664" style="enable-background:new 0 0 73.66 73.664;"
	 xml:space="preserve">
<g>
	<path style="fill:#2D72A8;" d="M73.66,65.372c0,4.577-3.711,8.292-8.288,8.292H8.298C3.713,73.664,0,69.949,0,65.372V8.296
		C0,3.715,3.713,0,8.298,0h57.074c4.577,0,8.288,3.715,8.288,8.296V65.372z"/>
	<g>
		<path style="fill:#FFFFFF;" d="M31.332,36.618h-5.197c0.011-0.08,0.02-0.167,0.02-0.254c0-0.987-0.8-1.795-1.787-1.795h-5.009
			c-0.985,0-1.792,0.808-1.792,1.795c0,0.087,0.012,0.175,0.025,0.254h-5.203c-1.125,0-2.043,0.918-2.043,2.049v11.89
			c0,1.131,0.918,2.045,2.043,2.045h18.943c1.134,0,2.049-0.915,2.049-2.045v-11.89C33.381,37.536,32.466,36.618,31.332,36.618z"/>
		<path style="fill:#2D72A8;" d="M24.402,36.629c0,0.258-0.209,0.475-0.465,0.475h-4.145c-0.26,0-0.473-0.216-0.473-0.475l0,0
			c0-0.262,0.213-0.467,0.473-0.467h4.145C24.193,36.162,24.402,36.367,24.402,36.629L24.402,36.629z"/>
	</g>
	<g>
		<g>
			<rect x="16.08" y="54.985" style="fill:#FFFFFF;" width="4.144" height="6.671"/>
			<rect x="8.638" y="54.985" style="fill:#FFFFFF;" width="4.14" height="6.671"/>
		</g>
		<g>
			<rect x="31.059" y="54.985" style="fill:#FFFFFF;" width="4.144" height="6.671"/>
			<rect x="23.616" y="54.985" style="fill:#FFFFFF;" width="4.14" height="6.671"/>
		</g>
		<g>
			<rect x="47.027" y="22.39" style="fill:#FFFFFF;" width="4.091" height="39.267"/>
			<rect x="38.102" y="22.39" style="fill:#FFFFFF;" width="7.362" height="39.267"/>
		</g>
		<g>
			<rect x="61.012" y="54.985" style="fill:#FFFFFF;" width="4.141" height="6.671"/>
			<rect x="53.566" y="54.985" style="fill:#FFFFFF;" width="4.144" height="6.671"/>
		</g>
	</g>
</g>
</svg>
