<?xml version="1.0" encoding="iso-8859-1"?>
<!-- Generator: Adobe Illustrator 16.0.0, SVG Export Plug-In . SVG Version: 6.00 Build 0)  -->
<!DOCTYPE svg PUBLIC "-//W3C//DTD SVG 1.1//EN" "http://www.w3.org/Graphics/SVG/1.1/DTD/svg11.dtd">
<svg version="1.1" id="&#x5716;&#x5C64;_1" xmlns="http://www.w3.org/2000/svg" xmlns:xlink="http://www.w3.org/1999/xlink" x="0px"
	 y="0px" width="72.726px" height="72.724px" viewBox="0 0 72.726 72.724" style="enable-background:new 0 0 72.726 72.724;"
	 xml:space="preserve">
<g>
	<path style="fill:#2D72A8;" d="M72.726,64.534c0,4.525-3.664,8.189-8.189,8.189H8.189C3.666,72.724,0,69.06,0,64.534V8.191
		C0,3.667,3.666,0,8.189,0h56.347c4.525,0,8.189,3.667,8.189,8.191V64.534z"/>
	<g>
		<path style="fill:#595758;stroke:#FFFFFF;stroke-width:0.5;stroke-miterlimit:10;" d="M61.197,27.363
			c0,5.113-3.671,9.258-8.204,9.258H19.729c-4.531,0-8.204-4.145-8.204-9.258v-0.516c0-5.114,3.673-9.254,8.204-9.254h33.264
			c4.533,0,8.204,4.14,8.204,9.254V27.363z"/>
		<g>
			<rect x="24.655" y="27.392" style="fill:#FFFFFF;stroke:#C9CACA;stroke-miterlimit:10;" width="22.969" height="32.025"/>
			<rect x="22.663" y="26.149" style="fill:#F0EFEF;" width="26.951" height="1.917"/>
		</g>
		<rect x="26.72" y="28.066" style="fill:#2D72A8;" width="3.107" height="18.045"/>
		<rect x="26.72" y="55.465" style="fill:#2D72A8;" width="3.107" height="3.566"/>
	</g>
</g>
</svg>
