<?xml version="1.0" encoding="iso-8859-1"?>
<!-- Generator: Adobe Illustrator 16.0.0, SVG Export Plug-In . SVG Version: 6.00 Build 0)  -->
<!DOCTYPE svg PUBLIC "-//W3C//DTD SVG 1.1//EN" "http://www.w3.org/Graphics/SVG/1.1/DTD/svg11.dtd">
<svg version="1.1" id="&#x5716;&#x5C64;_1" xmlns="http://www.w3.org/2000/svg" xmlns:xlink="http://www.w3.org/1999/xlink" x="0px"
	 y="0px" width="72.943px" height="72.943px" viewBox="0 0 72.943 72.943" style="enable-background:new 0 0 72.943 72.943;"
	 xml:space="preserve">
<g>
	<path style="fill:#2D72A8;" d="M72.943,64.729c0,4.54-3.675,8.215-8.215,8.215H8.215C3.677,72.943,0,69.269,0,64.729V8.216
		C0,3.679,3.677,0,8.215,0h56.514c4.54,0,8.215,3.679,8.215,8.216V64.729z"/>
	<path style="fill:#2D72A8;stroke:#FFFFFF;stroke-width:2;stroke-miterlimit:10;" d="M55.622,39.593c0,5.59-4.529,10.12-10.12,10.12
		c-5.593,0-10.124-4.53-10.124-10.12c0-5.592,4.531-10.125,10.124-10.125C51.093,29.468,55.622,34.001,55.622,39.593z"/>
	<circle style="fill:#2D72A8;stroke:#FFFFFF;stroke-width:0.75;stroke-miterlimit:10;" cx="29.042" cy="57.931" r="7.641"/>
	<path style="fill:#2D72A8;stroke:#B5B4B5;stroke-width:2;stroke-miterlimit:10;" d="M40.753,30.661
		c0,7.195-5.835,13.036-13.032,13.036c-7.202,0-13.038-5.841-13.038-13.036c0-7.2,5.836-13.034,13.038-13.034
		C34.918,17.627,40.753,23.461,40.753,30.661z"/>
	<path style="fill:#2D72A8;stroke:#FFFFFF;stroke-miterlimit:10;" d="M54.996,15.245c0,3.934-3.19,7.124-7.122,7.124
		s-7.121-3.19-7.121-7.124c0-3.931,3.189-7.117,7.121-7.117S54.996,11.314,54.996,15.245z"/>
	<g>
		<g>
			<path style="fill:#FFFFFF;" d="M44.935,17.288l0.853-0.335c0.604,0.716,1.295,1.077,2.083,1.077c0.338,0,0.654-0.053,0.951-0.155
				c0.298-0.103,0.518-0.237,0.676-0.407c0.153-0.171,0.232-0.352,0.232-0.544c0-0.217-0.115-0.433-0.34-0.64
				c-0.316-0.29-0.89-0.637-1.722-1.044c-0.839-0.41-1.359-0.708-1.564-0.89c-0.356-0.308-0.534-0.636-0.534-0.993
				c0-0.282,0.106-0.541,0.315-0.774c0.21-0.234,0.504-0.416,0.884-0.549c0.379-0.135,0.792-0.201,1.239-0.201
				c0.474,0,0.917,0.075,1.327,0.227c0.413,0.153,0.85,0.434,1.311,0.838l-0.822,0.401c-0.375-0.325-0.697-0.536-0.966-0.64
				c-0.263-0.104-0.554-0.155-0.868-0.155c-0.406,0-0.741,0.079-0.993,0.236c-0.258,0.161-0.388,0.358-0.388,0.592
				c0,0.141,0.047,0.278,0.133,0.409c0.095,0.133,0.261,0.278,0.502,0.433c0.133,0.085,0.564,0.302,1.296,0.65
				c0.869,0.416,1.465,0.788,1.79,1.108c0.322,0.327,0.485,0.651,0.485,0.977c0,0.474-0.278,0.882-0.829,1.228
				c-0.556,0.35-1.225,0.523-2.017,0.523c-0.612,0-1.165-0.105-1.66-0.316C45.813,18.136,45.354,17.779,44.935,17.288z"/>
		</g>
		
			<rect x="46.959" y="10.804" style="fill:#FFFFFF;stroke:#2D72A8;stroke-width:0.15;stroke-miterlimit:10;" width="0.718" height="8.887"/>
		
			<rect x="48.206" y="10.804" style="fill:#FFFFFF;stroke:#2D72A8;stroke-width:0.15;stroke-miterlimit:10;" width="0.721" height="8.887"/>
	</g>
	<g>
		<path style="fill:#FFFFFF;" d="M41.833,37.357c0.008-0.064,0.037-0.12,0.088-0.172c0.05-0.048,0.108-0.072,0.179-0.072h2.093
			c0.071,0,0.136,0.027,0.188,0.076c0.05,0.051,0.071,0.114,0.071,0.187c0,0.074-0.021,0.137-0.071,0.187
			c-0.053,0.05-0.117,0.079-0.188,0.079h-1.873l-0.22,1.348c0.259-0.127,0.529-0.188,0.812-0.188c0.254,0,0.496,0.049,0.72,0.148
			c0.227,0.1,0.425,0.233,0.594,0.401c0.17,0.174,0.304,0.367,0.403,0.595c0.1,0.225,0.149,0.466,0.149,0.721
			c0,0.254-0.05,0.495-0.149,0.72c-0.1,0.226-0.233,0.425-0.403,0.591c-0.169,0.172-0.367,0.308-0.594,0.407
			c-0.224,0.098-0.466,0.148-0.72,0.148c-0.361,0-0.687-0.095-0.98-0.279c-0.288-0.185-0.514-0.424-0.679-0.723
			c-0.04-0.065-0.063-0.132-0.063-0.21c0-0.063,0.022-0.119,0.063-0.166c0.039-0.05,0.097-0.072,0.177-0.072
			c0.063,0,0.119,0.021,0.176,0.066c0.052,0.045,0.098,0.099,0.129,0.161c0.111,0.207,0.273,0.376,0.484,0.505
			c0.209,0.126,0.44,0.189,0.693,0.189c0.188,0,0.36-0.034,0.521-0.104c0.163-0.07,0.304-0.167,0.425-0.29
			c0.121-0.117,0.216-0.265,0.287-0.423c0.069-0.161,0.105-0.337,0.105-0.521c0-0.188-0.036-0.362-0.105-0.521
			c-0.071-0.163-0.166-0.304-0.287-0.423c-0.121-0.121-0.262-0.217-0.425-0.289c-0.161-0.072-0.333-0.107-0.521-0.107
			c-0.072,0-0.155,0.008-0.246,0.017c-0.089,0.015-0.177,0.033-0.26,0.062c-0.086,0.029-0.166,0.064-0.239,0.108
			c-0.073,0.045-0.134,0.103-0.181,0.17c-0.043,0.063-0.082,0.112-0.123,0.152c-0.04,0.039-0.094,0.06-0.16,0.06
			c-0.067,0-0.125-0.024-0.172-0.074c-0.045-0.051-0.069-0.105-0.069-0.172c0-0.01,0.004-0.021,0.004-0.021l0.007-0.03
			L41.833,37.357z"/>
		<path style="fill:#FFFFFF;" d="M48.548,37.134c0.372,0,0.723,0.07,1.052,0.211c0.326,0.139,0.613,0.333,0.86,0.579
			c0.244,0.246,0.438,0.534,0.579,0.861c0.141,0.329,0.213,0.676,0.213,1.049c0,0.372-0.072,0.723-0.213,1.052
			c-0.141,0.328-0.335,0.616-0.579,0.857c-0.247,0.241-0.534,0.431-0.86,0.574c-0.329,0.143-0.68,0.215-1.052,0.215
			c-0.373,0-0.725-0.072-1.05-0.215c-0.329-0.144-0.615-0.333-0.856-0.574c-0.244-0.241-0.435-0.529-0.576-0.857
			c-0.145-0.329-0.213-0.68-0.213-1.052c0-0.373,0.068-0.72,0.213-1.049c0.142-0.327,0.332-0.615,0.576-0.861
			c0.241-0.246,0.527-0.44,0.856-0.579C47.823,37.204,48.175,37.134,48.548,37.134z M48.548,37.655
			c-0.298,0-0.583,0.059-0.848,0.171c-0.268,0.116-0.496,0.271-0.69,0.465c-0.195,0.198-0.347,0.434-0.463,0.698
			c-0.112,0.264-0.167,0.548-0.167,0.845c0,0.3,0.055,0.586,0.167,0.847c0.116,0.269,0.268,0.496,0.463,0.692
			c0.194,0.195,0.423,0.349,0.69,0.46c0.265,0.116,0.55,0.171,0.848,0.171c0.299,0,0.579-0.055,0.846-0.171
			c0.267-0.111,0.499-0.265,0.698-0.46c0.194-0.196,0.354-0.424,0.466-0.692c0.112-0.261,0.167-0.547,0.167-0.847
			c0-0.297-0.055-0.581-0.167-0.845c-0.111-0.265-0.271-0.5-0.466-0.698c-0.199-0.193-0.432-0.349-0.698-0.465
			C49.127,37.714,48.847,37.655,48.548,37.655z"/>
	</g>
	<g>
		<path style="fill:#FFFFFF;" d="M26.439,56.051h-0.014l-0.875,0.472l-0.131-0.518l1.1-0.59h0.578v5.033h-0.658V56.051z"/>
		<path style="fill:#FFFFFF;" d="M32.664,57.879c0,1.71-0.636,2.655-1.75,2.655c-0.983,0-1.649-0.921-1.664-2.587
			c0-1.688,0.728-2.617,1.751-2.617C32.061,55.33,32.664,56.274,32.664,57.879z M29.931,57.954c0,1.31,0.401,2.053,1.023,2.053
			c0.694,0,1.027-0.813,1.027-2.098c0-1.238-0.315-2.053-1.02-2.053C30.364,55.856,29.931,56.586,29.931,57.954z"/>
	</g>
	<g>
		<path style="fill:#FFFFFF;" d="M24.419,28.991h-2.104l-0.211,1.416c0.126-0.018,0.245-0.033,0.448-0.033
			c0.425,0,0.849,0.093,1.188,0.296c0.432,0.246,0.788,0.722,0.788,1.417c0,1.075-0.857,1.882-2.053,1.882
			c-0.603,0-1.111-0.17-1.372-0.34l0.187-0.567c0.229,0.135,0.678,0.305,1.178,0.305c0.703,0,1.306-0.458,1.306-1.194
			c-0.008-0.714-0.483-1.222-1.586-1.222c-0.314,0-0.558,0.034-0.763,0.061l0.357-2.646h2.637V28.991z"/>
		<path style="fill:#FFFFFF;" d="M29.562,31.061c0,1.873-0.694,2.908-1.915,2.908c-1.078,0-1.807-1.009-1.823-2.832
			c0-1.849,0.795-2.865,1.916-2.865C28.899,28.271,29.562,29.305,29.562,31.061z M26.568,31.146c0,1.433,0.441,2.247,1.12,2.247
			c0.763,0,1.127-0.89,1.127-2.297c0-1.357-0.348-2.249-1.118-2.249C27.045,28.847,26.568,29.645,26.568,31.146z"/>
		<path style="fill:#FFFFFF;" d="M34.332,31.061c0,1.873-0.694,2.908-1.915,2.908c-1.078,0-1.807-1.009-1.822-2.832
			c0-1.849,0.795-2.865,1.914-2.865C33.67,28.271,34.332,29.305,34.332,31.061z M31.339,31.146c0,1.433,0.442,2.247,1.119,2.247
			c0.764,0,1.128-0.89,1.128-2.297c0-1.357-0.348-2.249-1.118-2.249C31.815,28.847,31.339,29.645,31.339,31.146z"/>
	</g>
</g>
</svg>
