<?xml version="1.0" encoding="iso-8859-1"?>
<!-- Generator: Adobe Illustrator 16.0.0, SVG Export Plug-In . SVG Version: 6.00 Build 0)  -->
<!DOCTYPE svg PUBLIC "-//W3C//DTD SVG 1.1//EN" "http://www.w3.org/Graphics/SVG/1.1/DTD/svg11.dtd">
<svg version="1.1" id="&#x5716;&#x5C64;_1" xmlns="http://www.w3.org/2000/svg" xmlns:xlink="http://www.w3.org/1999/xlink" x="0px"
	 y="0px" width="73.581px" height="73.582px" viewBox="0 0 73.581 73.582" style="enable-background:new 0 0 73.581 73.582;"
	 xml:space="preserve">
<g>
	<path style="fill:#2D72A8;" d="M73.581,65.3c0,4.572-3.706,8.282-8.282,8.282H8.282C3.706,73.582,0,69.872,0,65.3V8.286
		C0,3.707,3.706,0,8.282,0h57.017c4.576,0,8.282,3.707,8.282,8.286V65.3z"/>
	<path style="fill:#FFFFFF;" d="M44.856,18.477c0,4.451-3.611,8.063-8.067,8.063c-4.451,0-8.063-3.612-8.063-8.063
		c0-4.455,3.612-8.067,8.063-8.067C41.245,10.41,44.856,14.022,44.856,18.477z"/>
	<g>
		<polygon style="fill:#FFFFFF;" points="38.2,30.013 38.2,62.822 41.733,62.822 41.733,29.36 		"/>
		<polygon style="fill:#FFFFFF;" points="31.849,62.822 35.381,62.822 35.381,30.013 31.849,30.736 		"/>
	</g>
	<rect x="26.58" y="62.757" style="fill:#FFFFFF;" width="20.421" height="2.207"/>
</g>
</svg>
