<?xml version="1.0" encoding="iso-8859-1"?>
<!-- Generator: Adobe Illustrator 16.0.0, SVG Export Plug-In . SVG Version: 6.00 Build 0)  -->
<!DOCTYPE svg PUBLIC "-//W3C//DTD SVG 1.1//EN" "http://www.w3.org/Graphics/SVG/1.1/DTD/svg11.dtd">
<svg version="1.1" id="&#x5716;&#x5C64;_1" xmlns="http://www.w3.org/2000/svg" xmlns:xlink="http://www.w3.org/1999/xlink" x="0px"
	 y="0px" width="73.514px" height="73.513px" viewBox="0 0 73.514 73.513" style="enable-background:new 0 0 73.514 73.513;"
	 xml:space="preserve">
<g>
	<path style="fill:#2D72A8;" d="M65.238,0c4.57,0,8.275,3.705,8.275,8.278v56.959c0,4.57-3.705,8.275-8.275,8.275H8.28
		c-4.573,0-8.28-3.705-8.28-8.275V8.278C0,3.705,3.707,0,8.28,0H65.238z"/>
	<g>
		<polygon style="fill:#FFFFFF;" points="68.342,43.341 13.846,43.704 9.744,37.392 63.85,34.534 		"/>
		
			<rect x="16.382" y="22.42" transform="matrix(0.6277 0.7785 -0.7785 0.6277 33.2341 -15.744)" style="fill:#FFFFFF;" width="33.388" height="8.904"/>
		<polygon style="fill:#FFFFFF;" points="13.846,43.704 5.177,32.95 11.012,28.249 19.682,38.997 		"/>
	</g>
	<g>
		<path style="fill:#FFFFFF;" d="M36.128,53.511c0.043-0.109,0.117-0.215,0.226-0.32c0.11-0.1,0.233-0.15,0.371-0.15
			c0.135,0,0.258,0.047,0.367,0.145c0.107,0.096,0.188,0.205,0.246,0.326l5.052,11.727c0.025,0.051,0.044,0.135,0.044,0.244
			c0,0.164-0.06,0.307-0.164,0.428c-0.111,0.123-0.26,0.186-0.453,0.186c-0.285,0-0.483-0.125-0.592-0.389l-1.639-3.744h-5.75
			l-1.633,3.744c-0.059,0.123-0.137,0.215-0.249,0.285c-0.109,0.07-0.223,0.104-0.347,0.104c-0.191,0-0.345-0.063-0.464-0.186
			c-0.111-0.121-0.171-0.264-0.171-0.428c0-0.082,0.019-0.16,0.063-0.244L36.128,53.511z M36.725,55.415l-2.334,5.277h4.643
			L36.725,55.415z"/>
	</g>
</g>
</svg>
