<?xml version="1.0" encoding="iso-8859-1"?>
<!-- Generator: Adobe Illustrator 16.0.0, SVG Export Plug-In . SVG Version: 6.00 Build 0)  -->
<!DOCTYPE svg PUBLIC "-//W3C//DTD SVG 1.1//EN" "http://www.w3.org/Graphics/SVG/1.1/DTD/svg11.dtd">
<svg version="1.1" xmlns="http://www.w3.org/2000/svg" xmlns:xlink="http://www.w3.org/1999/xlink" x="0px" y="0px" width="30.03px"
	 height="30.029px" viewBox="0 0 30.03 30.029" style="enable-background:new 0 0 30.03 30.029;" xml:space="preserve">
<g id="&#x5716;&#x5C64;_2">
</g>
<g id="&#x5716;&#x5C64;_3">
	<g>
		<path style="fill:#2A78B2;" d="M30.03,26.649c0,1.868-1.513,3.38-3.38,3.38H3.381C1.513,30.029,0,28.518,0,26.649V3.381
			C0,1.514,1.513,0,3.381,0h23.27c1.867,0,3.38,1.514,3.38,3.381V26.649z"/>
		<g>
			<rect x="6.661" y="8.81" style="fill:#FFFFFF;" width="1.375" height="16.644"/>
			<g>
				<rect x="8.203" y="23.242" style="fill:#FFFFFF;" width="17.252" height="2.211"/>
				<rect x="6.661" y="23.242" style="fill:#FFFFFF;" width="1.542" height="2.211"/>
			</g>
		</g>
		<g>
			<path style="fill:#FFFFFF;" d="M22.177,13.351h-2.938c0.007-0.045,0.016-0.096,0.016-0.144c0-0.559-0.454-1.014-1.012-1.014
				h-2.826c-0.56,0-1.012,0.455-1.012,1.014c0,0.048,0.007,0.099,0.015,0.144h-2.936c-0.641,0-1.155,0.52-1.155,1.155v6.713
				c0,0.639,0.515,1.156,1.155,1.156h10.692c0.639,0,1.155-0.518,1.155-1.156v-6.713C23.332,13.87,22.815,13.351,22.177,13.351z"/>
			<path style="fill:#2A78B2;" d="M18.264,13.355c0,0.147-0.117,0.267-0.263,0.267H15.66c-0.147,0-0.266-0.119-0.266-0.267l0,0
				c0-0.147,0.118-0.263,0.266-0.263h2.341C18.146,13.093,18.264,13.208,18.264,13.355L18.264,13.355z"/>
		</g>
		<path style="fill:none;stroke:#FFFFFF;stroke-miterlimit:10;" d="M11.836,6.797c0,0.938-0.762,1.698-1.698,1.698H4.963
			c-0.935,0-1.695-0.76-1.695-1.698V6.542c0-0.936,0.761-1.696,1.695-1.696h5.175c0.937,0,1.698,0.761,1.698,1.696V6.797z"/>
		<g>
			<path style="fill:#FFFFFF;" d="M5.128,5.743C5.13,5.718,5.14,5.696,5.16,5.68c0.02-0.019,0.041-0.028,0.068-0.028h0.784
				c0.03,0,0.05,0.01,0.069,0.029c0.021,0.019,0.03,0.042,0.03,0.068c0,0.029-0.009,0.052-0.03,0.072
				C6.063,5.84,6.043,5.849,6.013,5.849H5.312L5.229,6.356C5.324,6.31,5.425,6.287,5.532,6.287c0.097,0,0.187,0.019,0.271,0.054
				C5.889,6.38,5.964,6.429,6.026,6.492C6.09,6.558,6.138,6.631,6.176,6.716s0.059,0.175,0.059,0.271
				c0,0.095-0.021,0.186-0.059,0.269C6.138,7.344,6.09,7.418,6.026,7.481c-0.063,0.063-0.138,0.112-0.224,0.15
				C5.719,7.668,5.629,7.688,5.532,7.688c-0.135,0-0.259-0.035-0.364-0.103C5.054,7.516,4.969,7.426,4.909,7.313
				c-0.016-0.025-0.023-0.05-0.023-0.081c0-0.021,0.008-0.043,0.023-0.062c0.014-0.018,0.035-0.026,0.066-0.026
				c0.023,0,0.046,0.008,0.064,0.024c0.02,0.018,0.037,0.037,0.048,0.061c0.045,0.079,0.107,0.143,0.184,0.192
				C5.35,7.466,5.438,7.492,5.532,7.492c0.071,0,0.136-0.016,0.196-0.042c0.059-0.026,0.113-0.063,0.158-0.108
				C5.933,7.295,5.97,7.244,5.995,7.184c0.027-0.062,0.043-0.127,0.043-0.196c0-0.071-0.016-0.137-0.043-0.197
				C5.97,6.73,5.933,6.676,5.887,6.631c-0.045-0.044-0.1-0.082-0.158-0.107C5.668,6.494,5.604,6.482,5.532,6.482
				c-0.026,0-0.059,0.002-0.091,0.006C5.406,6.492,5.373,6.5,5.342,6.512c-0.03,0.01-0.062,0.025-0.088,0.041
				C5.225,6.569,5.205,6.592,5.186,6.616C5.168,6.641,5.153,6.66,5.139,6.675C5.12,6.688,5.101,6.696,5.077,6.696
				c-0.027,0-0.048-0.01-0.063-0.027c-0.02-0.021-0.027-0.041-0.027-0.065V6.598c0,0,0.005-0.006,0.005-0.011L5.128,5.743z"/>
			<path style="fill:#FFFFFF;" d="M6.661,5.749c0-0.026,0.01-0.05,0.028-0.068c0.019-0.02,0.04-0.029,0.069-0.029
				s0.052,0.01,0.07,0.029c0.02,0.019,0.029,0.042,0.029,0.068v0.845l0.997-0.913c0.02-0.02,0.043-0.029,0.068-0.029
				c0.027,0,0.052,0.01,0.073,0.029c0.018,0.019,0.028,0.042,0.028,0.068c0,0.029-0.011,0.052-0.028,0.072L7.31,6.449l0.689,1.089
				C8.01,7.554,8.015,7.574,8.015,7.591c0,0.021-0.01,0.043-0.028,0.064C7.969,7.676,7.943,7.688,7.914,7.688
				c-0.035,0-0.062-0.016-0.082-0.048L7.166,6.582L6.858,6.86v0.73c0,0.024-0.01,0.049-0.029,0.068
				c-0.019,0.017-0.041,0.028-0.07,0.028S6.708,7.676,6.689,7.659C6.671,7.64,6.661,7.615,6.661,7.591V5.749z"/>
			<path style="fill:#FFFFFF;" d="M9.543,6.955c-0.027,0-0.053-0.009-0.072-0.028C9.454,6.906,9.444,6.882,9.444,6.855
				s0.01-0.05,0.026-0.069c0.02-0.02,0.045-0.028,0.072-0.028h0.576c0.029,0,0.053,0.009,0.07,0.031
				c0.016,0.019,0.025,0.043,0.025,0.069l-0.002,0.013l-0.002,0.007C10.189,7,10.147,7.105,10.085,7.205
				C10.026,7.303,9.95,7.388,9.863,7.46C9.775,7.53,9.676,7.588,9.566,7.626c-0.11,0.04-0.228,0.062-0.349,0.062
				c-0.139,0-0.272-0.026-0.394-0.08C8.7,7.554,8.592,7.482,8.501,7.39C8.408,7.301,8.338,7.193,8.285,7.071
				C8.23,6.947,8.203,6.815,8.203,6.675S8.23,6.403,8.285,6.28c0.053-0.123,0.123-0.232,0.216-0.323
				C8.592,5.862,8.7,5.79,8.824,5.737c0.121-0.053,0.255-0.079,0.394-0.079c0.17,0,0.327,0.038,0.47,0.115
				c0.145,0.075,0.261,0.179,0.354,0.306c0.015,0.021,0.021,0.045,0.021,0.064c0,0.024-0.008,0.045-0.023,0.064
				c-0.021,0.021-0.042,0.031-0.073,0.031c-0.013,0-0.03-0.003-0.046-0.01C9.903,6.222,9.891,6.21,9.877,6.195
				c-0.102-0.119-0.207-0.207-0.32-0.26C9.444,5.883,9.33,5.856,9.218,5.856c-0.111,0-0.219,0.019-0.319,0.062
				c-0.1,0.044-0.187,0.103-0.257,0.178c-0.076,0.075-0.133,0.16-0.177,0.261C8.426,6.457,8.404,6.562,8.404,6.675
				c0,0.112,0.021,0.22,0.061,0.317c0.044,0.1,0.101,0.188,0.177,0.259c0.07,0.074,0.157,0.133,0.257,0.178
				C8.999,7.47,9.106,7.492,9.218,7.492c0.09,0,0.175-0.016,0.251-0.042c0.082-0.026,0.154-0.063,0.223-0.109
				c0.068-0.048,0.125-0.103,0.174-0.17c0.05-0.065,0.092-0.137,0.123-0.216H9.543z"/>
		</g>
	</g>
</g>
</svg>
