<?xml version="1.0" encoding="iso-8859-1"?>
<!-- Generator: Adobe Illustrator 16.0.0, SVG Export Plug-In . SVG Version: 6.00 Build 0)  -->
<!DOCTYPE svg PUBLIC "-//W3C//DTD SVG 1.1//EN" "http://www.w3.org/Graphics/SVG/1.1/DTD/svg11.dtd">
<svg version="1.1" xmlns="http://www.w3.org/2000/svg" xmlns:xlink="http://www.w3.org/1999/xlink" x="0px" y="0px"
	 width="29.799px" height="29.8px" viewBox="0 0 29.799 29.8" style="enable-background:new 0 0 29.799 29.8;" xml:space="preserve"
	>
<g id="&#x5716;&#x5C64;_2">
</g>
<g id="&#x5716;&#x5C64;_3">
	<g>
		<path style="fill:#E56C4E;" d="M29.799,26.444c0,1.853-1.5,3.355-3.354,3.355H3.355C1.503,29.8,0,28.297,0,26.444V3.354
			C0,1.504,1.503,0,3.355,0h23.09c1.854,0,3.354,1.504,3.354,3.354V26.444z"/>
		<path style="fill:#FFFFFF;" d="M21.022,6.671h-0.023L19.956,5.74H9.982L8.799,6.671H8.777c-0.922,0-1.671,0.752-1.671,1.677
			v13.961c0,0.822,0.594,1.505,1.375,1.645v1.42c0,0.257,0.458,0.465,1.02,0.465c0.562,0,1.021-0.208,1.021-0.465v-1.39h9.039v1.39
			c0,0.257,0.457,0.465,1.021,0.465c0.564,0,1.019-0.208,1.019-0.465v-1.5c0.637-0.237,1.093-0.843,1.093-1.564V8.348
			C22.694,7.423,21.947,6.671,21.022,6.671z M10.524,6.882h8.777c0.396,0,0.716,0.375,0.716,0.839c0,0.462-0.319,0.836-0.716,0.836
			h-8.777c-0.398,0-0.72-0.374-0.72-0.836C9.805,7.257,10.126,6.882,10.524,6.882z M9.159,22.031c-0.557,0-1.009-0.454-1.009-1.016
			c0-0.558,0.452-1.011,1.009-1.011c0.559,0,1.01,0.453,1.01,1.011C10.169,21.577,9.718,22.031,9.159,22.031z M8.783,18.088v-8.065
			h12.234v8.065H8.783z M20.918,22.031c-0.558,0-1.009-0.454-1.009-1.016c0-0.558,0.451-1.011,1.009-1.011
			c0.557,0,1.009,0.453,1.009,1.011C21.927,21.577,21.475,22.031,20.918,22.031z"/>
	</g>
</g>
</svg>
