<?xml version="1.0" encoding="iso-8859-1"?>
<!-- Generator: Adobe Illustrator 16.0.0, SVG Export Plug-In . SVG Version: 6.00 Build 0)  -->
<!DOCTYPE svg PUBLIC "-//W3C//DTD SVG 1.1//EN" "http://www.w3.org/Graphics/SVG/1.1/DTD/svg11.dtd">
<svg version="1.1" xmlns="http://www.w3.org/2000/svg" xmlns:xlink="http://www.w3.org/1999/xlink" x="0px" y="0px"
	 width="29.521px" height="29.522px" viewBox="0 0 29.521 29.522" style="enable-background:new 0 0 29.521 29.522;"
	 xml:space="preserve">
<g id="&#x5716;&#x5C64;_2">
</g>
<g id="&#x5716;&#x5C64;_3">
	<g>
		<path style="fill:#E56C4E;" d="M29.521,26.197c0,1.836-1.489,3.325-3.323,3.325H3.323C1.487,29.522,0,28.033,0,26.197V3.322
			C0,1.489,1.487,0,3.323,0h22.875c1.834,0,3.323,1.489,3.323,3.322V26.197z"/>
		<circle style="fill:none;stroke:#FFFFFF;stroke-width:3;stroke-miterlimit:10;" cx="14.824" cy="14.761" r="9.899"/>
		<line style="fill:none;stroke:#FFFFFF;stroke-width:3;stroke-miterlimit:10;" x1="10.619" y1="12.575" x2="14.826" y2="15.001"/>
		<line style="fill:none;stroke:#FFFFFF;stroke-width:3;stroke-miterlimit:10;" x1="20.535" y1="11.581" x2="14.826" y2="15.002"/>
		<path style="fill:none;stroke:#FFFFFF;stroke-width:2;stroke-miterlimit:10;" d="M15.335,15.001c0,0.283-0.229,0.511-0.509,0.511
			c-0.281,0-0.508-0.228-0.508-0.511c0-0.279,0.227-0.507,0.508-0.507C15.106,14.494,15.335,14.722,15.335,15.001z"/>
	</g>
</g>
</svg>
