<?xml version="1.0" encoding="iso-8859-1"?>
<!-- Generator: Adobe Illustrator 16.0.0, SVG Export Plug-In . SVG Version: 6.00 Build 0)  -->
<!DOCTYPE svg PUBLIC "-//W3C//DTD SVG 1.1//EN" "http://www.w3.org/Graphics/SVG/1.1/DTD/svg11.dtd">
<svg version="1.1" xmlns="http://www.w3.org/2000/svg" xmlns:xlink="http://www.w3.org/1999/xlink" x="0px" y="0px" width="29.62px"
	 height="29.615px" viewBox="0 0 29.62 29.615" style="enable-background:new 0 0 29.62 29.615;" xml:space="preserve">
<g id="&#x5716;&#x5C64;_2">
</g>
<g id="&#x5716;&#x5C64;_3">
	<g>
		<path style="fill:#E56C4E;" d="M29.62,26.281c0,1.841-1.494,3.334-3.334,3.334H3.336C1.495,29.615,0,28.122,0,26.281V3.334
			C0,1.492,1.495,0,3.336,0h22.949c1.84,0,3.334,1.492,3.334,3.334V26.281z"/>
		<g>
			<rect x="25.028" y="12.164" style="fill:#FFFFFF;" width="0.833" height="12.609"/>
			<g>
				<path style="fill:#FFFFFF;" d="M25.86,19.691c0,0-2.135-2.248-2.295-3.134C22.939,13.133,25.86,5.493,25.86,5.493V19.691z"/>
			</g>
		</g>
		<g>
			<rect x="5.607" y="12.164" style="fill:#FFFFFF;" width="0.833" height="12.609"/>
			<path style="fill:#FFFFFF;" d="M8.643,9.965c0,1.881-1.173,3.404-2.621,3.404c-1.444,0-2.616-1.523-2.616-3.404
				c0-1.877,1.172-4.239,2.616-4.239C7.47,5.726,8.643,8.088,8.643,9.965z"/>
		</g>
		<circle style="fill:#FFFFFF;stroke:#FFFFFF;stroke-width:3;stroke-miterlimit:10;" cx="15.124" cy="16.834" r="6.179"/>
		<circle style="fill:none;stroke:#898989;stroke-width:0.25;stroke-miterlimit:10;" cx="15.124" cy="16.834" r="5.591"/>
	</g>
</g>
</svg>
