<?xml version="1.0" encoding="iso-8859-1"?>
<!-- Generator: Adobe Illustrator 16.0.0, SVG Export Plug-In . SVG Version: 6.00 Build 0)  -->
<!DOCTYPE svg PUBLIC "-//W3C//DTD SVG 1.1//EN" "http://www.w3.org/Graphics/SVG/1.1/DTD/svg11.dtd">
<svg version="1.1" id="&#x5716;&#x5C64;_1" xmlns="http://www.w3.org/2000/svg" xmlns:xlink="http://www.w3.org/1999/xlink" x="0px"
	 y="0px" width="73.641px" height="73.645px" viewBox="0 0 73.641 73.645" style="enable-background:new 0 0 73.641 73.645;"
	 xml:space="preserve">
<g>
	<path style="fill:#DB6A4D;" d="M73.641,65.352c0,4.578-3.706,8.293-8.288,8.293H8.29C3.714,73.645,0,69.93,0,65.352V8.294
		C0,3.718,3.714,0,8.29,0h57.063c4.582,0,8.288,3.718,8.288,8.294V65.352z"/>
	<path style="fill:#FFFFFF;" d="M51.952,16.488h-0.058l-2.577-2.299H24.67l-2.925,2.299h-0.052c-2.28,0-4.131,1.857-4.131,4.143
		v34.502c0,2.033,1.468,3.719,3.397,4.063v3.508c0,0.637,1.131,1.15,2.519,1.15c1.392,0,2.522-0.514,2.522-1.15v-3.435h22.342v3.435
		c0,0.637,1.131,1.15,2.521,1.15c1.392,0,2.521-0.514,2.521-1.15v-3.706c1.572-0.585,2.697-2.085,2.697-3.864V20.631
		C56.081,18.346,54.235,16.488,51.952,16.488z M26.007,17.008h21.692c0.979,0,1.771,0.929,1.771,2.07c0,1.145-0.791,2.07-1.771,2.07
		H26.007c-0.981,0-1.777-0.926-1.777-2.07C24.229,17.937,25.025,17.008,26.007,17.008z M22.635,54.444
		c-1.377,0-2.493-1.121-2.493-2.505c0-1.382,1.116-2.5,2.493-2.5c1.38,0,2.496,1.118,2.496,2.5
		C25.131,53.323,24.015,54.444,22.635,54.444z M21.705,44.697V24.77h30.232v19.928H21.705z M51.695,54.444
		c-1.378,0-2.494-1.121-2.494-2.505c0-1.382,1.116-2.5,2.494-2.5c1.375,0,2.493,1.118,2.493,2.5
		C54.188,53.323,53.07,54.444,51.695,54.444z"/>
</g>
</svg>
