<?xml version="1.0" encoding="iso-8859-1"?>
<!-- Generator: Adobe Illustrator 16.0.0, SVG Export Plug-In . SVG Version: 6.00 Build 0)  -->
<!DOCTYPE svg PUBLIC "-//W3C//DTD SVG 1.1//EN" "http://www.w3.org/Graphics/SVG/1.1/DTD/svg11.dtd">
<svg version="1.1" id="&#x5716;&#x5C64;_1" xmlns="http://www.w3.org/2000/svg" xmlns:xlink="http://www.w3.org/1999/xlink" x="0px"
	 y="0px" width="73.643px" height="73.645px" viewBox="0 0 73.643 73.645" style="enable-background:new 0 0 73.643 73.645;"
	 xml:space="preserve">
<g>
	<g>
		<g>
			<defs>
				<rect id="SVGID_1_" x="22.072" y="10.006" width="29.215" height="4.193"/>
			</defs>
			<clipPath id="SVGID_2_">
				<use xlink:href="#SVGID_1_"  style="overflow:visible;"/>
			</clipPath>
			<path style="clip-path:url(#SVGID_2_);fill:none;stroke:#FFFFFF;stroke-width:0.75;stroke-miterlimit:10;" d="M50.148,14.199
				c0,1.586-6.086,2.873-13.598,2.873c-7.521,0-13.6-1.287-13.6-2.873s6.078-2.879,13.6-2.879
				C44.063,11.32,50.148,12.613,50.148,14.199z"/>
		</g>
		<rect x="28.443" y="11.854" style="fill:#FFFFFF;" width="0.859" height="5.135"/>
		<rect x="43.973" y="11.854" style="fill:#FFFFFF;" width="0.863" height="5.135"/>
	</g>
	<path style="fill:#DB6A4D;" d="M73.643,65.352c0,4.578-3.713,8.293-8.295,8.293H8.291C3.713,73.645,0,69.93,0,65.352V8.295
		C0,3.719,3.713,0,8.291,0h57.057c4.582,0,8.295,3.719,8.295,8.295V65.352z"/>
	<g>
		<polygon style="fill:#FFFFFF;" points="22.572,64.189 19.885,64.189 27.061,54.322 28.764,54.322 		"/>
		<polygon style="fill:#FFFFFF;" points="51.068,64.189 53.754,64.189 46.578,54.322 44.879,54.322 		"/>
		<rect x="25.67" y="56.24" style="fill:#FFFFFF;" width="22.02" height="2.564"/>
	</g>
	<g>
		<defs>
			<rect id="SVGID_3_" x="18.568" y="6.904" width="18.25" height="52.35"/>
		</defs>
		<clipPath id="SVGID_4_">
			<use xlink:href="#SVGID_3_"  style="overflow:visible;"/>
		</clipPath>
		<path style="clip-path:url(#SVGID_4_);fill:#FFFFFF;" d="M48,15.387H25.643c-2.139,0-3.871,1.832-3.871,4.084l1.279,31.764
			c0,2.256,0.453,3.871,2.592,3.871H48c2.139,0,3.377-1.615,3.377-3.871l0.494-31.764C51.871,17.219,50.139,15.387,48,15.387z
			 M23.725,28.002c0-2.318,1.848-4.195,4.125-4.195h8.006v8.393H27.85C25.572,32.199,23.725,30.32,23.725,28.002z M26.885,46.447
			c-1.316,0-2.389-1.1-2.389-2.453c0-1.359,1.072-2.453,2.389-2.453c1.313,0,2.385,1.094,2.385,2.453
			C29.27,45.348,28.197,46.447,26.885,46.447z M47.104,46.447c-1.314,0-2.387-1.1-2.387-2.453c0-1.359,1.072-2.453,2.387-2.453
			c1.316,0,2.385,1.094,2.385,2.453C49.488,45.348,48.42,46.447,47.104,46.447z M45.789,32.199h-8.445v-8.393h8.445
			c2.271,0,4.125,1.877,4.125,4.195S48.061,32.199,45.789,32.199z"/>
	</g>
	<g>
		<defs>
			<rect id="SVGID_5_" x="36.818" y="6.904" width="18.252" height="52.35"/>
		</defs>
		<clipPath id="SVGID_6_">
			<use xlink:href="#SVGID_5_"  style="overflow:visible;"/>
		</clipPath>
		<path style="clip-path:url(#SVGID_6_);fill:#FFFFFF;" d="M21.771,19.471l0.496,31.764c0,2.256,1.236,3.871,3.375,3.871H48
			c2.139,0,2.592-1.615,2.592-3.871l1.279-31.764c0-2.252-1.732-4.084-3.871-4.084H25.643
			C23.504,15.387,21.771,17.219,21.771,19.471z M45.789,32.199h-8.004v-8.393h8.004c2.275,0,4.127,1.877,4.127,4.195
			S48.064,32.199,45.789,32.199z M44.369,43.994c0-1.359,1.068-2.453,2.385-2.453c1.318,0,2.387,1.094,2.387,2.453
			c0,1.354-1.068,2.453-2.387,2.453C45.438,46.447,44.369,45.348,44.369,43.994z M24.152,43.994c0-1.359,1.068-2.453,2.387-2.453
			c1.314,0,2.383,1.094,2.383,2.453c0,1.354-1.068,2.453-2.383,2.453C25.221,46.447,24.152,45.348,24.152,43.994z M23.729,28.002
			c0-2.318,1.848-4.195,4.125-4.195h8.441v8.393h-8.441C25.576,32.199,23.729,30.32,23.729,28.002z"/>
	</g>
</g>
</svg>
