<?xml version="1.0" encoding="iso-8859-1"?>
<!-- Generator: Adobe Illustrator 16.0.0, SVG Export Plug-In . SVG Version: 6.00 Build 0)  -->
<!DOCTYPE svg PUBLIC "-//W3C//DTD SVG 1.1//EN" "http://www.w3.org/Graphics/SVG/1.1/DTD/svg11.dtd">
<svg version="1.1" id="&#x5716;&#x5C64;_1" xmlns="http://www.w3.org/2000/svg" xmlns:xlink="http://www.w3.org/1999/xlink" x="0px"
	 y="0px" width="73.641px" height="73.645px" viewBox="0 0 73.641 73.645" style="enable-background:new 0 0 73.641 73.645;"
	 xml:space="preserve">
<g>
	<path style="fill:#DB6A4D;" d="M73.641,65.352c0,4.578-3.711,8.293-8.287,8.293H8.291C3.714,73.645,0,69.93,0,65.352V8.293
		C0,3.717,3.714,0,8.291,0h57.063c4.576,0,8.287,3.717,8.287,8.293V65.352z"/>
	<g>
		<path style="fill:#FFFFFF;" d="M56.613,45.195l-8.545-10.533H36.822H25.573L17.03,45.195h-0.269v13.107h40.119V45.195H56.613z
			 M23.092,52.645c-1.41,0-2.559-1.1-2.559-2.457c0-1.354,1.148-2.455,2.559-2.455s2.556,1.102,2.556,2.455
			C25.647,51.545,24.502,52.645,23.092,52.645z M21.769,44.346l4.88-7.338l10.174-0.119l10.172,0.119l4.879,7.338H36.822H21.769z
			 M50.865,52.645c-1.416,0-2.559-1.1-2.559-2.457c0-1.354,1.143-2.455,2.559-2.455c1.41,0,2.559,1.102,2.559,2.455
			C53.424,51.545,52.275,52.645,50.865,52.645z"/>
		<path style="fill:#FFFFFF;" d="M22.891,53.738c1.609,0,2.918,0.773,2.918,1.725v6.529c0,0.953-1.309,1.723-2.918,1.723l0,0
			c-1.613,0-2.921-0.77-2.921-1.723v-6.529C19.97,54.512,21.277,53.738,22.891,53.738L22.891,53.738z"/>
		<path style="fill:#FFFFFF;" d="M51.211,53.738c1.611,0,2.918,0.773,2.918,1.725v6.529c0,0.953-1.307,1.723-2.918,1.723l0,0
			c-1.615,0-2.918-0.77-2.918-1.723v-6.529C48.293,54.512,49.596,53.738,51.211,53.738L51.211,53.738z"/>
	</g>
	<g>
		<polygon style="fill:#FFFFFF;" points="17.759,19.586 17.759,22.529 18.549,22.529 18.549,25.473 19.851,25.473 19.851,22.529 
			22.016,22.529 22.016,25.473 23.32,25.473 23.32,22.529 42.107,22.529 42.107,19.586 		"/>
		<path style="fill:none;stroke:#FFFFFF;stroke-width:3;stroke-miterlimit:10;" d="M55.885,21.104c0,3.932-3.18,7.115-7.109,7.115
			c-3.928,0-7.111-3.184-7.111-7.115c0-3.924,3.184-7.107,7.111-7.107C52.705,13.996,55.885,17.18,55.885,21.104z"/>
	</g>
</g>
</svg>
