<?xml version="1.0" encoding="iso-8859-1"?>
<!-- Generator: Adobe Illustrator 16.0.0, SVG Export Plug-In . SVG Version: 6.00 Build 0)  -->
<!DOCTYPE svg PUBLIC "-//W3C//DTD SVG 1.1//EN" "http://www.w3.org/Graphics/SVG/1.1/DTD/svg11.dtd">
<svg version="1.1" id="&#x5716;&#x5C64;_1" xmlns="http://www.w3.org/2000/svg" xmlns:xlink="http://www.w3.org/1999/xlink" x="0px"
	 y="0px" width="73.641px" height="73.645px" viewBox="0 0 73.641 73.645" style="enable-background:new 0 0 73.641 73.645;"
	 xml:space="preserve">
<g>
	<g>
		<path style="fill:#DB6A4D;" d="M73.641,65.352c0,4.578-3.717,8.293-8.291,8.293H8.288C3.707,73.645,0,69.93,0,65.352V8.294
			C0,3.718,3.707,0,8.288,0H65.35c4.574,0,8.291,3.718,8.291,8.294V65.352z"/>
		<g>
			<g>
				<path style="fill:#FFFFFF;" d="M58.484,42.819l-9.349-11.88H36.821H24.502l-9.352,11.88h-0.299V57.59h43.932V42.819H58.484z
					 M21.787,51.218c-1.546,0-2.801-1.238-2.801-2.769c0-1.527,1.255-2.768,2.801-2.768c1.547,0,2.801,1.24,2.801,2.768
					C24.588,49.979,23.334,51.218,21.787,51.218z M20.333,41.861l5.351-8.273l11.138-0.134l11.135,0.134l5.346,8.273h-16.48H20.333z
					 M52.196,51.218c-1.549,0-2.802-1.238-2.802-2.769c0-1.527,1.253-2.768,2.802-2.768c1.542,0,2.796,1.24,2.796,2.768
					C54.992,49.979,53.738,51.218,52.196,51.218z"/>
				<path style="fill:#FFFFFF;" d="M21.563,52.453c1.766,0,3.194,0.867,3.194,1.938v7.368c0,1.071-1.429,1.938-3.194,1.938l0,0
					c-1.764,0-3.196-0.867-3.196-1.938v-7.368C18.367,53.32,19.8,52.453,21.563,52.453L21.563,52.453z"/>
				<path style="fill:#FFFFFF;" d="M52.576,52.453c1.762,0,3.19,0.867,3.19,1.938v7.368c0,1.071-1.429,1.938-3.19,1.938l0,0
					c-1.766,0-3.195-0.867-3.195-1.938v-7.368C49.381,53.32,50.811,52.453,52.576,52.453L52.576,52.453z"/>
			</g>
			<rect x="30.819" y="28.055" style="fill:#FFFFFF;" width="11.997" height="3.355"/>
		</g>
	</g>
	<g>
		<path style="fill:#FFFFFF;" d="M23.539,14.229h4.764v1.617h-1.57v7.002h-1.664v-7.002h-1.529V14.229z"/>
		<path style="fill:#FFFFFF;" d="M32.657,14.229h1.663l3.315,8.619h-1.705l-0.675-1.775h-3.517l-0.701,1.775h-1.705L32.657,14.229z
			 M33.499,16.514l-1.156,2.959h2.306L33.499,16.514z"/>
		<path style="fill:#FFFFFF;" d="M38.945,14.229h1.846l1.812,2.767l1.815-2.767h1.844l-2.735,4.179l2.907,4.44h-1.846l-1.983-3.03
			l-1.983,3.03h-1.857l2.915-4.444L38.945,14.229z"/>
		<path style="fill:#FFFFFF;" d="M48.149,14.229h1.629v8.619h-1.629V14.229z"/>
	</g>
</g>
</svg>
