<?xml version="1.0" encoding="iso-8859-1"?>
<!-- Generator: Adobe Illustrator 16.0.0, SVG Export Plug-In . SVG Version: 6.00 Build 0)  -->
<!DOCTYPE svg PUBLIC "-//W3C//DTD SVG 1.1//EN" "http://www.w3.org/Graphics/SVG/1.1/DTD/svg11.dtd">
<svg version="1.1" id="&#x5716;&#x5C64;_1" xmlns="http://www.w3.org/2000/svg" xmlns:xlink="http://www.w3.org/1999/xlink" x="0px"
	 y="0px" width="73.257px" height="73.254px" viewBox="0 0 73.257 73.254" style="enable-background:new 0 0 73.257 73.254;"
	 xml:space="preserve">
<g>
	<path style="fill:#DB6A4D;" d="M73.257,65.006c0,4.556-3.692,8.248-8.248,8.248H8.249C3.692,73.254,0,69.562,0,65.006V8.245
		C0,3.692,3.692,0,8.249,0h56.761c4.556,0,8.248,3.692,8.248,8.245V65.006z"/>
	<g>
		<polygon style="fill:none;stroke:#FFFFFF;stroke-width:2;stroke-miterlimit:10;" points="45.888,33.124 28.74,28.532 
			11.587,33.124 11.587,64.343 28.74,59.746 45.888,64.343 63.041,59.746 63.041,28.532 		"/>
		<polygon style="fill:#FFFFFF;" points="28.74,59.746 11.587,63.836 11.587,48.396 28.74,41.799 		"/>
		<polygon style="fill:#FFFFFF;" points="63.041,59.746 45.888,64.343 45.888,48.396 63.004,44.187 		"/>
		<polygon style="fill:#FFFFFF;" points="45.888,64.343 28.74,59.746 28.74,41.799 45.888,48.396 		"/>
	</g>
	<g>
		<path style="fill:#DB6A4D;stroke:#FFFFFF;stroke-width:0.5;stroke-miterlimit:10;" d="M50.35,17.224
			c0-6.415-5.659-11.618-12.637-11.618c-6.979,0-12.639,5.203-12.639,11.618c0,2.931,1.192,5.605,3.142,7.648h-0.014l9.511,10.904
			l9.51-10.904h-0.015C49.16,22.829,50.35,20.154,50.35,17.224z"/>
		
			<ellipse style="fill:#FFFFFF;stroke:#FFFFFF;stroke-width:0.5;stroke-miterlimit:10;" cx="37.713" cy="17.224" rx="5.378" ry="4.948"/>
	</g>
</g>
</svg>
