<?xml version="1.0" encoding="iso-8859-1"?>
<!-- Generator: Adobe Illustrator 16.0.0, SVG Export Plug-In . SVG Version: 6.00 Build 0)  -->
<!DOCTYPE svg PUBLIC "-//W3C//DTD SVG 1.1//EN" "http://www.w3.org/Graphics/SVG/1.1/DTD/svg11.dtd">
<svg version="1.1" id="&#x5716;&#x5C64;_1" xmlns="http://www.w3.org/2000/svg" xmlns:xlink="http://www.w3.org/1999/xlink" x="0px"
	 y="0px" width="73.196px" height="73.188px" viewBox="0 0 73.196 73.188" style="enable-background:new 0 0 73.196 73.188;"
	 xml:space="preserve">
<g>
	<path style="fill:#DB6A4D;" d="M73.196,64.949c0,4.551-3.691,8.239-8.239,8.239H8.243C3.691,73.188,0,69.5,0,64.949V8.239
		C0,3.69,3.691,0,8.243,0h56.714c4.548,0,8.239,3.69,8.239,8.239V64.949z"/>
	<g>
		<rect x="61.849" y="30.063" style="fill:#FFFFFF;" width="2.059" height="31.159"/>
		<g>
			<path style="fill:#FFFFFF;" d="M63.908,48.663c0,0-5.276-5.554-5.674-7.743c-1.545-8.463,5.674-27.342,5.674-27.342V48.663z"/>
		</g>
	</g>
	<g>
		<rect x="13.854" y="30.063" style="fill:#FFFFFF;" width="2.059" height="31.159"/>
		<path style="fill:#FFFFFF;" d="M21.355,24.627c0,4.647-2.898,8.412-6.473,8.412c-3.571,0-6.466-3.765-6.466-8.412
			c0-4.641,2.895-10.479,6.466-10.479C18.458,14.147,21.355,19.986,21.355,24.627z"/>
	</g>
	<circle style="fill:#FFFFFF;stroke:#FFFFFF;stroke-width:3;stroke-miterlimit:10;" cx="37.373" cy="41.604" r="15.269"/>
	<circle style="fill:none;stroke:#8A8A8A;stroke-width:0.25;stroke-miterlimit:10;" cx="37.373" cy="41.603" r="13.817"/>
</g>
</svg>
