<?xml version="1.0" encoding="iso-8859-1"?>
<!-- Generator: Adobe Illustrator 16.0.0, SVG Export Plug-In . SVG Version: 6.00 Build 0)  -->
<!DOCTYPE svg PUBLIC "-//W3C//DTD SVG 1.1//EN" "http://www.w3.org/Graphics/SVG/1.1/DTD/svg11.dtd">
<svg version="1.1" id="&#x5716;&#x5C64;_1" xmlns="http://www.w3.org/2000/svg" xmlns:xlink="http://www.w3.org/1999/xlink" x="0px"
	 y="0px" width="73.188px" height="73.182px" viewBox="0 0 73.188 73.182" style="enable-background:new 0 0 73.188 73.182;"
	 xml:space="preserve">
<g>
	<path style="fill:#DB6A4D;" d="M73.188,64.943c0,4.551-3.686,8.238-8.24,8.238H8.238C3.689,73.182,0,69.494,0,64.943V8.234
		C0,3.688,3.689,0,8.238,0h56.709c4.555,0,8.24,3.688,8.24,8.234V64.943z"/>
	<g>
		<rect x="28.469" y="31.063" style="fill:#FFFFFF;" width="35.9" height="18.906"/>
		<g>
			<rect x="8.371" y="52.418" style="fill:#FFFFFF;" width="57.313" height="5.742"/>
			<polygon style="fill:#FFFFFF;" points="25.658,52.955 8.371,52.955 12.076,37.943 25.658,37.943 			"/>
		</g>
		<polygon style="fill:#DB6A4D;" points="21.709,46.438 12.551,46.438 14.08,40.93 21.709,40.93 		"/>
		<path style="fill:#FFFFFF;" d="M22.5,58.16c0,2.48-1.998,4.484-4.479,4.484c-2.482,0-4.488-2.004-4.488-4.484
			c0-2.475,2.006-4.486,4.488-4.486C20.502,53.674,22.5,55.686,22.5,58.16z"/>
		<path style="fill:#DB6A4D;" d="M20.031,58.039c0,1.115-0.896,2.016-2.01,2.016c-1.115,0-2.012-0.9-2.012-2.016
			c0-1.109,0.896-2.012,2.012-2.012C19.135,56.027,20.031,56.93,20.031,58.039z"/>
		<path style="fill:#FFFFFF;" d="M61.607,58.287c0,2.477-2.012,4.488-4.488,4.488c-2.48,0-4.484-2.012-4.484-4.488
			c0-2.479,2.004-4.484,4.484-4.484C59.596,53.803,61.607,55.809,61.607,58.287z"/>
		<path style="fill:#DB6A4D;" d="M59.135,58.168c0,1.109-0.908,2.016-2.016,2.016c-1.111,0-2.014-0.906-2.014-2.016
			c0-1.115,0.902-2.016,2.014-2.016C58.227,56.152,59.135,57.053,59.135,58.168z"/>
	</g>
</g>
</svg>
