<?xml version="1.0" encoding="iso-8859-1"?>
<!-- Generator: Adobe Illustrator 16.0.0, SVG Export Plug-In . SVG Version: 6.00 Build 0)  -->
<!DOCTYPE svg PUBLIC "-//W3C//DTD SVG 1.1//EN" "http://www.w3.org/Graphics/SVG/1.1/DTD/svg11.dtd">
<svg version="1.1" id="&#x5716;&#x5C64;_1" xmlns="http://www.w3.org/2000/svg" xmlns:xlink="http://www.w3.org/1999/xlink" x="0px"
	 y="0px" width="304.869px" height="407.905px" viewBox="0 0 304.869 407.905" style="enable-background:new 0 0 304.869 407.905;"
	 xml:space="preserve">
<g>
	<g>
		<g>
			<g>
				<g>
					<polygon style="fill:#040000;" points="234.962,397.293 225.438,397.585 225.026,383.932 234.55,383.641 					"/>
					<path style="fill:#040000;" d="M237.712,398.958c0.125,4.124-3.116,7.568-7.235,7.688c-4.12,0.125-7.56-3.114-7.685-7.237
						c-0.125-4.119,3.115-7.558,7.234-7.685C234.146,391.601,237.586,394.836,237.712,398.958z"/>
				</g>
				<g>
					
						<rect x="262.372" y="382.669" transform="matrix(0.9995 -0.0302 0.0302 0.9995 -11.6537 8.2545)" style="fill:#040000;" width="9.529" height="13.654"/>
					<path style="fill:#040000;" d="M274.855,397.839c0.123,4.122-3.114,7.564-7.234,7.685c-4.123,0.126-7.563-3.108-7.687-7.231
						c-0.123-4.126,3.116-7.563,7.236-7.685C271.29,390.482,274.73,393.72,274.855,397.839z"/>
				</g>
			</g>
			<g>
				<path style="fill:#4B708D;" d="M276.21,389.947l-56.479,1.702c-5.184,0.156-9.793-3.263-11.145-8.273l-21.955-81.434
					c-1.883-6.976,3.245-13.881,10.471-14.102l56.479-1.701c5.18-0.153,9.793,3.271,11.142,8.278l21.956,81.429
					C288.562,382.826,283.434,389.732,276.21,389.947z"/>
				<path style="fill:#C59D62;" d="M303.18,358.324l-21.954-81.437c-1.35-5.008-5.963-8.43-11.142-8.272l-56.479,1.704
					c-3.732,0.108-6.902,2.008-8.837,4.777l-15.796,16.999l17.391,4.297l18.729,69.458c1.349,5.004,5.959,8.432,11.141,8.277
					l43.542-1.316c1.45,5.074,3.968,13.486,3.968,13.486l15.398-16.135C302.601,367.52,304.426,362.939,303.18,358.324z"/>
				<path style="fill:#AE8047;" d="M276.21,389.947l-56.479,1.702c-5.184,0.156-9.793-3.263-11.145-8.273l-21.955-81.434
					c-1.883-6.976,3.245-13.881,10.471-14.102l56.479-1.701c5.18-0.153,9.793,3.271,11.142,8.278l21.956,81.429
					C288.562,382.826,283.434,389.732,276.21,389.947z"/>
			</g>
			<g>
				<polygon style="fill:#B4BFC1;" points="214.802,304.47 210.304,304.605 175.737,203.938 180.231,203.805 				"/>
				<polygon style="fill:#B4BFC1;" points="245.233,303.554 240.735,303.688 206.166,203.022 210.667,202.887 				"/>
				<path style="fill:#040000;" d="M211.78,205.815l-36.659,1.105c-1.557,0.046-2.858-1.175-2.905-2.73l-0.015-0.58
					c-0.047-1.557,1.176-2.854,2.732-2.904l36.66-1.104c1.557-0.047,2.855,1.178,2.906,2.733l0.014,0.577
					C214.56,204.47,213.337,205.771,211.78,205.815z"/>
				<path style="fill:#796A56;" d="M244.963,305.488l-36.659,1.1c-1.557,0.049-2.855-1.175-2.902-2.73l-0.017-0.58
					c-0.048-1.556,1.176-2.853,2.731-2.901l36.659-1.106c1.557-0.045,2.855,1.182,2.903,2.736l0.017,0.581
					C247.743,304.139,246.52,305.443,244.963,305.488z"/>
			</g>
		</g>
		<polygon style="fill:#F7C7B2;" points="56.318,245.991 62.372,381.017 78.793,381.183 88.332,245.991 		"/>
		<g>
			<path style="fill:#AE8047;" d="M62.372,381.017l-9.285,9.304l-7.284,2.127c-3.348,0.979-5.824,5.135-6.082,10.21l-0.123,2.373
				l39.395,0.241l-0.199-24.089L62.372,381.017z"/>
			<polyline style="fill:#040000;" points="79.157,405.668 39.443,405.418 39.399,400.201 79.113,400.453 79.157,405.668 			"/>
		</g>
		<polygon style="fill:#DA927E;" points="87.161,262.598 86.953,265.52 57.252,266.804 57.063,262.598 		"/>
		<path style="fill:#F6D57F;" d="M78.793,381.183l2.35-30.938c0,0-10.128,2.754-20.256,0l1.484,30.772L78.793,381.183z"/>
		<path style="fill:#F7C7B2;" d="M92.154,244.334l2.768,43.531c0,0,0.355,17.612,11.934,34.608
			c9.725,14.28,34.066,51.032,34.066,51.032l13.68-9.076l-30.599-68.045l2.544-55.023L92.154,244.334z"/>
		<g>
			<path style="fill:#AE8047;" d="M140.921,373.506l-2.468,12.91l-4.834,5.846c-2.222,2.69-1.939,7.521,0.694,11.867l1.23,2.028
				l32.746-21.902l-13.688-19.825L140.921,373.506z"/>
			<polyline style="fill:#040000;" points="168.643,384.489 135.634,406.566 132.668,402.275 165.679,380.189 168.643,384.489 			
				"/>
		</g>
		<path style="fill:#DA927E;" d="M125.436,265.338c-0.01,0.24-31.853,1.466-31.853,1.466l-0.268-4.206h32.25L125.436,265.338z"/>
		<path style="fill:#F6D57F;" d="M140.921,373.506l-17.542-26.408c0,0,17.333,0.369,17.542-13.086l13.68,30.418L140.921,373.506z"/>
		<path style="fill:#DB6A4D;" d="M116.932,158.84c0,0,13.774,6.198,20.563,39.322c6.791,33.117,6.225,64.436,6.225,64.436H33.949
			c0,0,19.042-73.29,33.504-101.813L116.932,158.84z"/>
		<path style="fill:#F7C7B2;" d="M21.955,115.547l21.543,33.091l4.917-13.413l9.55-26.74c0.311-0.691,0.635-1.306,0.956-1.938
			l0.062-0.164l0.016,0.006C66.442,91.916,75.79,93.412,75.79,93.412l-1.019,18.774l9.681,3.555l-10.956,19.926l-0.015,0.281
			l-0.138-0.005l-18.83,34.245c-4.669,9.229-16.173,7.856-21.277-1.141L5.721,121.374L21.955,115.547z"/>
		<path style="fill:#B81C25;" d="M20.292,117.189l12.094-5.447c2.411-1.088,3.487-3.928,2.4-6.341L21.955,76.931
			c-1.085-2.413-3.924-3.487-6.335-2.402l-12.094,5.45c-2.41,1.087-3.483,3.924-2.401,6.338l12.83,28.471
			C15.044,117.201,17.879,118.276,20.292,117.189z"/>
		<circle style="fill:#F7C7B2;" cx="14.326" cy="113.02" r="13.323"/>
		<g>
			<path style="fill:#E99415;" d="M109.668,92.063l20.484,0.882c5.7,0.25,9.492,6,7.468,11.334l-20.689,54.56l-49.479,1.945
				l-0.029-29.937c0,0-9.875-8.637,2.421-23.894l5.006-12.125c0.691-1.674,2.327-2.766,4.135-2.766H109.668z"/>
			
				<line style="fill:none;stroke:#F5E829;stroke-width:0.7402;stroke-miterlimit:10;" x1="118.878" y1="152.41" x2="67.424" y2="154.219"/>
		</g>
		<circle style="fill:#F7C7B2;" cx="191.501" cy="200.676" r="13.323"/>
		<path style="fill:#F7C7B2;" d="M120.884,98.846c5.831-6.853,16.61-6.173,21.535,1.356l31.989,44.556
			c0.62,0.865,1.141,1.796,1.556,2.775l22.939,54.571h-15.349l-26.109-51.033l-36.563-34.765
			C116.602,111.274,116.602,103.878,120.884,98.846z"/>
		<g>
			<g>
				<circle style="fill:#AE8047;" cx="121.792" cy="19.18" r="18.142"/>
				<path style="fill:#AE8047;" d="M120.17,37.246h2.646c0,0-2.66-13.412-15.98-15.977L120.17,37.246z"/>
			</g>
			<g>
				<g>
					<path style="fill:#F7C7B2;" d="M109.668,92.063v-21.42H89.656v21.42c0,5.525,4.479,7.631,10.003,7.631l0,0
						C105.186,99.695,109.668,97.588,109.668,92.063z"/>
				</g>
				<path style="fill:#F7C7B2;" d="M110.404,65.774c0,0-2.214,23.897-20.749,22.447l0.018-11.972L110.404,65.774z"/>
			</g>
			<path style="fill:#D9907D;" d="M63.833,57.931c-0.059,4.062,3.183,7.406,7.244,7.47c4.063,0.062,7.411-3.184,7.471-7.246
				c0.064-4.063-3.181-7.407-7.244-7.468C67.242,50.623,63.897,53.868,63.833,57.931z"/>
			<path style="fill:#AE8047;" d="M121.548,45.948c0,15.496-12.561,28.056-28.055,28.056c-15.495,0-28.058-12.561-28.058-28.056
				c0-15.492,12.563-28.052,28.058-28.052C108.988,17.896,121.548,30.456,121.548,45.948z"/>
			<g>
				<g>
					<g>
						<path style="fill:#F7C7B2;" d="M91.059,84.18l0.862,0.013c12.746,0.196,23.239-9.981,23.434-22.728l0.429-24.558
							c0.051-3.298-2.581-6.013-5.881-6.064L81.16,26.571c-5.893-0.089-12.38,8.422-12.472,14.315l-0.355,19.858
							C68.136,73.493,78.313,83.986,91.059,84.18z"/>
					</g>
				</g>
			</g>
			<path style="fill:#AE8047;" d="M104.208,23.623c-2.563-0.412-4.959-0.545-7.196-0.474l0.303-0.133
				c-37.849-3.063-28.987,23.868-28.987,23.868c3.956-1.969,6.163-4.263,7.403-6.456c4.1,3.997,12.742,9.536,29.453,10.397
				c1.261,4.451,4.052,9.213,10.172,10.64l1.688-10.778h-0.002h0.002C117.042,50.687,126.042,27.133,104.208,23.623z"/>
			<g>
				<circle style="fill:#161E21;" cx="89.598" cy="60.609" r="1.58"/>
				<circle style="fill:#161E21;" cx="74.414" cy="60.493" r="1.581"/>
				
					<path style="fill:none;stroke:#D68E7D;stroke-width:0.5245;stroke-linecap:round;stroke-linejoin:round;stroke-miterlimit:10;" d="
					M78.987,62.074l-0.349,5.435c0,0,0.265,2.389,3.673,1.47"/>
				<path style="fill:#161E21;" d="M93.854,55.987c-0.097,0.018-0.193,0.023-0.296,0.021l-7.154-0.304
					c-0.799-0.035-1.416-0.708-1.387-1.508c0.035-0.799,0.707-1.417,1.512-1.385l7.152,0.302c0.8,0.033,1.416,0.709,1.385,1.508
					C95.039,55.321,94.517,55.882,93.854,55.987z"/>
				<path style="fill:#161E21;" d="M75.9,55.605c-0.094,0.015-0.191,0.019-0.292,0.015l-4.376-0.18
					c-0.797-0.037-1.416-0.709-1.383-1.51c0.032-0.799,0.709-1.419,1.505-1.383l4.376,0.183c0.8,0.034,1.418,0.708,1.387,1.507
					C77.085,54.935,76.568,55.495,75.9,55.605z"/>
				<path style="fill:none;stroke:#D68E7D;stroke-linecap:round;stroke-linejoin:round;stroke-miterlimit:10;" d="M76.848,73.115
					c0,0,4.824,4.566,12.113,0"/>
			</g>
			<path style="fill:#F7C7B2;" d="M109.573,57.931c-0.063,4.062,3.181,7.406,7.245,7.47c4.062,0.062,7.404-3.184,7.467-7.246
				c0.064-4.063-3.181-7.407-7.245-7.468C112.981,50.623,109.633,53.868,109.573,57.931z"/>
		</g>
	</g>
	<path style="fill:none;stroke:#FFFFFF;stroke-width:2;stroke-miterlimit:10;" d="M303.478,358.284l-21.953-81.438
		c-1.352-5.008-5.964-8.429-11.143-8.271l-36.47,1.102l-21.94-63.898l0.105-0.004c1.559-0.045,2.78-1.345,2.732-2.902l-0.014-0.578
		c-0.05-1.556-1.349-2.778-2.906-2.732l-6.811,0.205c-0.047-0.713-0.137-1.432-0.305-2.149c-1.334-5.735-6.189-9.729-11.748-10.244
		l-16.765-39.881c-0.415-0.979-0.936-1.91-1.555-2.775l-31.989-44.556c-1.877-2.87-4.607-4.737-7.587-5.579
		c-1.292-0.979-2.892-1.599-4.68-1.677l-20.484-0.882V76.24c2.701-3.094,4.591-6.917,5.335-11.143
		c0.58,0.158,1.185,0.254,1.813,0.264c4.062,0.062,7.404-3.184,7.467-7.246c0.042-2.632-1.31-4.956-3.368-6.287
		c0.41-1.909,0.631-3.889,0.631-5.92c0-3.04-0.49-5.965-1.384-8.706c0.001,0,0.002,0,0.003,0l0.003,0.004h0.085
		c0.507,0.042,1.018,0.078,1.536,0.078c10.018,0,18.142-8.124,18.142-18.144S132.107,1,122.089,1
		c-10.019,0-18.142,8.121-18.142,18.141c0,0.213,0.024,0.42,0.032,0.631c-3.159-1.232-6.592-1.916-10.188-1.916
		c-15.495,0-28.058,12.56-28.058,28.052c0,2.297,0.282,4.527,0.803,6.663c-1.448,1.32-2.374,3.207-2.407,5.32
		c-0.047,3.21,1.971,5.964,4.823,7.013c1.732,10.326,10.33,18.364,21,19.168v7.952H79.285c-1.229,0-2.371,0.513-3.198,1.362l0-0.013
		c0,0-9.348-1.497-16.792,12.978l-0.016-0.006l-0.061,0.164c-0.322,0.632-0.646,1.247-0.956,1.938l-9.55,26.74l-4.917,13.413
		l-18.243-28.023c1.363-1.964,2.206-4.28,2.365-6.727l4.767-2.147c2.412-1.088,3.487-3.927,2.401-6.34L22.252,76.891
		c-1.085-2.413-3.924-3.487-6.336-2.402l-12.094,5.45c-2.41,1.087-3.483,3.924-2.401,6.338l6.779,15.043
		c-5.097,2.806-7.936,8.736-6.554,14.68c0.854,3.669,3.151,6.62,6.147,8.41l25.739,44.597c5.104,8.997,16.608,10.37,21.278,1.141
		l12.925-23.508l0.014,14.106c-14.462,28.522-33.504,101.813-33.504,101.813H57.36l3.931,87.674
		c-0.035-0.011-0.071-0.019-0.106-0.028l1.485,30.772l-9.285,9.303l-7.284,2.128c-2.789,0.817-4.968,3.839-5.769,7.757l-0.636-0.004
		l0.044,5.219l39.714,0.249l-0.043-5.214H79.25l-0.159-19.271l2.35-30.938c0,0-0.062,0.016-0.17,0.044l6.121-86.746l0.067-0.943
		h6.154l0.079,1.241l1.528,24.025c0,0,0.355,17.612,11.934,34.607c4.222,6.202,11.2,16.637,17.744,26.463l16.323,24.571
		l-2.469,12.908l-4.834,5.848c-1.849,2.238-1.938,5.958-0.407,9.649l-0.543,0.363l2.965,4.291l33.009-22.078l-2.964-4.299
		l-0.135,0.091l-10.943-15.85L124.3,296.345l1.563-33.786h18.153c0,0,0.566-31.32-6.224-64.438
		c-6.789-33.123-20.563-39.321-20.563-39.321l12.901-34.022l27.612,26.254l22.239,43.469c-0.959,1.846-1.487,3.919-1.496,6.068
		l-3.256,0.097c-1.557,0.049-2.779,1.347-2.732,2.904l0.015,0.58c0.047,1.556,1.349,2.776,2.905,2.73l1.623-0.049l24.667,71.836
		l-10.302,11.086c-3.746,2.577-5.774,7.348-4.479,12.148l21.957,81.433c1.352,5.012,5.96,8.431,11.144,8.275l5.522-0.167
		l0.063,2.104c-1.606,1.418-2.595,3.513-2.524,5.82c0.124,4.123,3.563,7.362,7.684,7.238c4.119-0.119,7.36-3.563,7.235-7.688
		c-0.071-2.308-1.183-4.338-2.87-5.656l-0.063-2.105l27.618-0.831l0.063,2.104c-1.606,1.417-2.595,3.512-2.526,5.824
		c0.125,4.123,3.564,7.358,7.688,7.232c4.121-0.122,7.357-3.563,7.234-7.685c-0.07-2.308-1.182-4.338-2.871-5.656l-0.063-2.107
		l4.288-0.13c4.056-0.119,7.448-2.349,9.313-5.517l13.615-14.266C302.897,367.479,304.724,362.899,303.478,358.284z
		 M182.838,210.488c3.13,2.842,7.552,4.154,11.979,3.124c4.237-0.986,7.516-3.9,9.152-7.592l3.501-0.105l21.942,63.898
		l-15.512,0.466c-3.732,0.107-6.901,2.008-8.836,4.776l-0.039,0.043L182.838,210.488z"/>
</g>
</svg>
